<svg width="454" height="479" viewBox="0 0 454 479" fill="none" xmlns="http://www.w3.org/2000/svg">
<g clip-path="url(#clip0_3_2)">
<path d="M325.472 479C396.456 479 454 473.215 454 466.08C454 458.944 396.456 453.159 325.472 453.159C254.488 453.159 196.945 458.944 196.945 466.08C196.945 473.215 254.488 479 325.472 479Z" fill="white"/>
<path opacity="0.1" d="M325.472 479C396.456 479 454 473.215 454 466.08C454 458.944 396.456 453.159 325.472 453.159C254.488 453.159 196.945 458.944 196.945 466.08C196.945 473.215 254.488 479 325.472 479Z" fill="#292A2E"/>
<path d="M112.111 273.942H71.1421V286.929H112.111V273.942Z" fill="#F4F4F4"/>
<path opacity="0.05" d="M82.0119 273.942H76.6438V286.929H82.0119V273.942Z" fill="#292A2E"/>
<path d="M106.876 276.765H84.5549V284.461H106.876V276.765Z" fill="white"/>
<path d="M144.789 275.637L106.722 257.523L101.951 269.424L140.018 287.538L144.789 275.637Z" fill="#F4F4F4"/>
<path opacity="0.05" d="M144.789 275.637L106.722 257.523L101.951 269.424L140.018 287.538L144.789 275.637Z" fill="#292A2E"/>
<path d="M139.677 273.204L134.689 270.831L129.918 282.732L134.906 285.105L139.677 273.204Z" fill="white"/>
<path d="M131.289 272.293L110.549 262.425L107.722 269.477L128.461 279.346L131.289 272.293Z" fill="white"/>
<path opacity="0.05" d="M144.86 438.456H134.565V445.947H144.86V438.456Z" fill="#292A2E"/>
<path opacity="0.05" d="M39.5997 438.456H29.3043V445.947H39.5997V438.456Z" fill="#292A2E"/>
<path d="M154.298 287.538H19.8672V438.203H154.298V287.538Z" fill="#F4F4F4"/>
<path opacity="0.03" d="M154.298 287.538H19.8672V438.203H154.298V287.538Z" fill="#292A2E"/>
<path d="M179.21 287.538H44.7791V438.203H179.21V287.538Z" fill="#F4F4F4"/>
<path opacity="0.05" d="M169.772 438.456H159.477V445.947H169.772V438.456Z" fill="#292A2E"/>
<path opacity="0.05" d="M64.5122 438.456H54.2167V445.947H64.5122V438.456Z" fill="#292A2E"/>
<path opacity="0.7" d="M174.164 294.595H49.8259V323.541H174.164V294.595Z" fill="white"/>
<path opacity="0.7" d="M174.164 330.625H49.8259V359.571H174.164V330.625Z" fill="white"/>
<path opacity="0.7" d="M174.164 366.655H49.8259V395.601H174.164V366.655Z" fill="white"/>
<path opacity="0.05" d="M111.995 313.118C114.048 313.118 115.713 311.304 115.713 309.068C115.713 306.831 114.048 305.017 111.995 305.017C109.942 305.017 108.277 306.831 108.277 309.068C108.277 311.304 109.942 313.118 111.995 313.118Z" fill="#292A2E"/>
<path opacity="0.05" d="M111.995 349.148C114.048 349.148 115.713 347.335 115.713 345.098C115.713 342.861 114.048 341.048 111.995 341.048C109.942 341.048 108.277 342.861 108.277 345.098C108.277 347.335 109.942 349.148 111.995 349.148Z" fill="#292A2E"/>
<path opacity="0.05" d="M111.995 385.179C114.048 385.179 115.713 383.366 115.713 381.129C115.713 378.892 114.048 377.079 111.995 377.079C109.942 377.079 108.277 378.892 108.277 381.129C108.277 383.366 109.942 385.179 111.995 385.179Z" fill="#292A2E"/>
<path opacity="0.7" d="M174.164 403.498H49.8259V432.444H174.164V403.498Z" fill="white"/>
<path opacity="0.05" d="M111.995 422.021C114.048 422.021 115.713 420.208 115.713 417.971C115.713 415.734 114.048 413.921 111.995 413.921C109.942 413.921 108.277 415.734 108.277 417.971C108.277 420.208 109.942 422.021 111.995 422.021Z" fill="#292A2E"/>
<path d="M67.5877 137.997H147.077V25.2775L67.5877 25.2775L67.5877 137.997Z" fill="#F4F4F4"/>
<path d="M67.5882 25.2775H65.0095V137.997H67.5882V25.2775Z" fill="#F4F4F4"/>
<path opacity="0.05" d="M67.5882 25.2775H65.0095V137.997H67.5882V25.2775Z" fill="#292A2E"/>
<path opacity="0.05" d="M82.0685 117.463H132.598V45.8103H82.0685V117.463Z" fill="#292A2E"/>
<path opacity="0.03" d="M82.0685 117.463H84.7018L84.7018 45.8103H82.0685L82.0685 117.463Z" fill="#292A2E"/>
<path d="M2.57821 237.19H67.5877L67.5877 165.716H2.57821L2.57821 237.19Z" fill="#F4F4F4"/>
<path opacity="0.05" d="M14.4206 224.17H55.7453L55.7453 178.736H14.4206L14.4206 224.17Z" fill="#292A2E"/>
<path d="M2.57871 165.716H0V237.191H2.57871V165.716Z" fill="#F4F4F4"/>
<path opacity="0.05" d="M2.57871 165.716H0V237.191H2.57871V165.716Z" fill="#292A2E"/>
<path opacity="0.03" d="M14.4206 224.17H17.0539L17.0539 178.736H14.4206L14.4206 224.17Z" fill="#292A2E"/>
<path d="M398.997 25.0091H233.115V205.728H398.997V25.0091Z" fill="#F4F4F4"/>
<path d="M233.115 25.0091H231.214V205.728H233.115V25.0091Z" fill="#F4F4F4"/>
<path opacity="0.05" d="M233.115 25.0091H231.214V205.728H233.115V25.0091Z" fill="#292A2E"/>
<path opacity="0.05" d="M273.301 149.539V102.257H308.852V129.727H363.92V178.365H387.326V205.728H363.92H359.412H241.094V149.539H273.301Z" fill="#292A2E"/>
<path opacity="0.34" d="M304.288 107.39H278.4V112.524H304.288V107.39Z" fill="#FFFFFA"/>
<path opacity="0.34" d="M304.288 118.029H278.4V123.163H304.288V118.029Z" fill="#FFFFFA"/>
<path opacity="0.34" d="M304.288 128.667H278.4V133.801H304.288V128.667Z" fill="#FFFFFA"/>
<path opacity="0.34" d="M250.457 154.522H245.685V159.656H250.457V154.522Z" fill="#FFFFFA"/>
<path opacity="0.34" d="M250.457 165.161H245.685V170.294H250.457V165.161Z" fill="#FFFFFA"/>
<path opacity="0.34" d="M250.457 175.798H245.685V180.932H250.457V175.798Z" fill="#FFFFFA"/>
<path opacity="0.34" d="M259.285 154.522H254.513V159.656H259.285V154.522Z" fill="#FFFFFA"/>
<path opacity="0.34" d="M259.285 165.161H254.513V170.294H259.285V165.161Z" fill="#FFFFFA"/>
<path opacity="0.34" d="M259.285 175.798H254.513V180.932H259.285V175.798Z" fill="#FFFFFA"/>
<path opacity="0.34" d="M267.874 154.522H263.102V159.656H267.874V154.522Z" fill="#FFFFFA"/>
<path opacity="0.34" d="M267.874 165.161H263.102V170.294H267.874V165.161Z" fill="#FFFFFA"/>
<path opacity="0.34" d="M267.874 175.798H263.102V180.932H267.874V175.798Z" fill="#FFFFFA"/>
<path d="M233.115 114.354H266.493V25.0086H269.254V114.354H359.412V25.0086H362.172V114.354H398.997V117.362H362.172V205.728H359.412V117.362H269.254V205.728H266.493V117.362H233.115V114.354Z" fill="white"/>
<path d="M405.605 205.509H226.507V211.519H405.605V205.509Z" fill="#F4F4F4"/>
<path opacity="0.1" d="M405.605 205.509H226.507V211.519H405.605V205.509Z" fill="#292A2E"/>
<path opacity="0.1" d="M226.507 205.509H223.921V211.519H226.507V205.509Z" fill="#292A2E"/>
<path opacity="0.1" d="M226.507 205.509H223.921V211.519H226.507V205.509Z" fill="#292A2E"/>
<path d="M370.552 236.469C345.157 236.469 324.569 244.017 324.569 253.328V273.398H416.535V253.328C416.535 244.017 395.948 236.469 370.552 236.469Z" fill="#367CFF"/>
<path opacity="0.49" d="M370.552 236.469C345.157 236.469 324.569 244.017 324.569 253.328V273.398H416.535V253.328C416.535 244.017 395.948 236.469 370.552 236.469Z" fill="white"/>
<path opacity="0.49" d="M404.009 253.33V273.397H324.568V253.33C324.568 244.796 341.858 237.744 364.288 236.63C386.721 237.744 404.009 244.796 404.009 253.33Z" fill="white"/>
<path d="M416.535 468.416H418.079L416.535 271.618L415.005 273.299L416.096 410.768L361.618 411.777L360.519 273.285L358.989 273.299L360.089 411.805L327.202 412.414L326.098 273.285L324.568 271.633L326.111 468.416L327.628 468.402L327.215 414.082L360.101 413.473L360.519 468.416L362.049 468.402L361.631 413.444L416.109 412.435L416.535 468.416Z" fill="#292A2E"/>
<path d="M277.834 438.952C277.834 438.952 275.099 454.395 261.827 455.256C248.554 456.117 251.432 467.636 251.432 467.636H302.152V440.029L277.834 438.952Z" fill="#367CFF"/>
<path d="M306.772 392.502C306.772 392.502 310.575 407.675 299.015 414.83C287.454 421.985 294.704 430.937 294.704 430.937L340.214 406.544L329.029 381.773L306.772 392.502Z" fill="#367CFF"/>
<path d="M301.956 402.53L267.664 261.569C265.063 245.996 268.979 239.246 275.013 232.689C285.614 221.169 329.544 196.649 329.544 196.649L382.245 196.492C396.22 196.492 409.957 211.504 409.957 226.728C409.957 241.952 395.751 254.863 381.777 254.863L316.879 261.919L334.471 390.988L301.956 402.53Z" fill="#262626"/>
<path d="M334.471 390.987L327.545 340.174L292.459 363.492L301.956 402.53L334.471 390.987Z" fill="#0C0C0C"/>
<path d="M342.424 225.174C342.424 225.174 320.27 230.553 298.328 254.457C285.025 268.95 286.116 295.177 288.112 345.62L309.904 310.553L333.806 263.589L342.424 225.174Z" fill="#0C0C0C"/>
<path d="M419.131 196.477L383.34 196.293L383.327 196.806H372.49C372.49 196.806 345.342 224.02 323.487 241.169C307.589 253.642 297.891 265.534 297.052 278.495C295.006 310.089 271.933 444.837 271.933 444.837L306.657 450.565L337.13 289.532C337.13 289.532 384.777 265.599 395.798 257.273C406.176 249.431 413.507 246.399 416.942 237.841C422.873 223.061 419.131 196.477 419.131 196.477Z" fill="#262626"/>
<path d="M378.978 206.298L320.916 207.136L353.486 228.328L380.587 213.082C381.24 212.7 381.757 212.09 382.054 211.35C382.351 210.611 382.412 209.784 382.226 209.002C382.041 208.22 381.62 207.529 381.031 207.038C380.442 206.548 379.719 206.287 378.978 206.298Z" fill="#292A2E"/>
<path opacity="0.2" d="M378.978 206.298L320.916 207.136L353.486 228.328L380.587 213.082C381.24 212.7 381.757 212.09 382.054 211.35C382.351 210.611 382.412 209.784 382.226 209.002C382.041 208.22 381.62 207.529 381.031 207.038C380.442 206.548 379.719 206.287 378.978 206.298Z" fill="white"/>
<path d="M321.249 92.8181L304.826 150.789L271.931 197.709L291.147 221.74L330.281 174.155C332.084 172.603 333.494 170.576 334.379 168.265L334.988 166.657L357.593 107.073L321.249 92.8181Z" fill="#367CFF"/>
<path d="M346.548 31.2829C346.548 31.2829 339.93 25.8376 338.291 13.3133C337.021 3.61559 345.232 9.89829 345.232 9.89829C345.232 9.89829 344.381 2.90548 349.058 3.59948C353.735 4.29348 356.351 11.6391 356.351 11.6391" fill="#0C0C0C"/>
<path d="M373.228 4.41795C373.228 4.41795 396.431 7.12784 388.043 41.3824L385.99 41.5324L381.823 41.8369" fill="#0C0C0C"/>
<path d="M350.434 77.156C350.536 77.1416 351.668 97.6039 373.488 95.8219C388.595 94.5889 393.982 77.1271 394.327 77.1271C392.699 76.7499 390.686 76.1775 389.886 75.9814C388.143 75.5406 386.564 74.5319 385.359 73.0895C384.155 71.6471 383.382 69.8393 383.143 67.9067C382.702 65.0063 383.45 50.166 383.221 47.2311L360.034 52.8698C360.358 59.0686 362.625 73.4382 354.678 75.9814C353.355 76.4015 351.93 76.7904 350.434 77.156Z" fill="#E98862"/>
<path opacity="0.52" d="M359.709 70.1088C360.072 68.8333 360.306 67.5184 360.406 66.1876C360.661 63.1506 360.61 60.0925 360.253 57.0677C364.967 56.3758 369.408 54.2572 373.071 50.9528C373.502 52.6853 375.87 60.2555 375.213 61.8991C373.975 65.0107 368.151 70.1088 359.709 70.1088Z" fill="#0C0C0C"/>
<path d="M364.495 66.0587C373.643 65.1646 384.593 58.8675 384.751 45.338L384.893 33.1305C385.052 19.6016 378.657 8.54363 366.964 8.38138C355.272 8.21968 346.404 19.0659 346.246 32.5954L346.183 37.9996C346.191 39.8556 346.315 41.709 346.554 43.5466C347.154 48.4085 348.085 55.8003 351.113 60.8006C353.973 65.5213 358.65 66.6293 364.495 66.0587Z" fill="#E98862"/>
<path opacity="0.52" d="M360.25 53.6922C358.362 53.7854 356.48 53.3939 354.757 52.5492C354.686 52.5146 354.631 52.4513 354.603 52.3729C354.575 52.2945 354.576 52.2073 354.607 52.1299C354.637 52.0525 354.694 51.9911 354.765 51.9589C354.837 51.9267 354.917 51.9261 354.988 51.9575C358.702 53.6827 362.074 53.4305 364.739 51.2273C364.793 51.181 364.849 51.1378 364.906 51.0979C364.973 51.0635 365.05 51.0579 365.121 51.082C365.191 51.1062 365.251 51.1585 365.288 51.2284C365.325 51.2983 365.336 51.3809 365.32 51.4596C365.304 51.5384 365.261 51.6076 365.2 51.6535C365.179 51.668 365.144 51.6974 365.098 51.7374C363.697 52.9003 362.009 53.581 360.25 53.6922Z" fill="#0C0C0C"/>
<path opacity="0.52" d="M360.336 56.7399C359.995 56.7628 359.653 56.7539 359.313 56.7132C359.275 56.7088 359.238 56.6961 359.204 56.6759C359.169 56.6558 359.139 56.6285 359.115 56.5957C359.091 56.5629 359.073 56.5252 359.062 56.4847C359.051 56.4442 359.047 56.4018 359.051 56.3598C359.055 56.3179 359.067 56.2772 359.085 56.2402C359.104 56.2031 359.129 56.1704 359.159 56.1438C359.189 56.1173 359.224 56.0975 359.261 56.0856C359.298 56.0736 359.337 56.0698 359.376 56.0742C361.419 56.3104 362.394 55.2908 362.436 55.2469C362.491 55.1865 362.566 55.1526 362.644 55.1525C362.722 55.1524 362.798 55.1861 362.853 55.2463C362.908 55.3065 362.94 55.3882 362.94 55.4735C362.94 55.5587 362.909 55.6405 362.853 55.7008C362.15 56.3536 361.26 56.7207 360.336 56.7399Z" fill="#0C0C0C"/>
<path d="M350.107 40.6011C350.903 40.6011 351.548 39.8986 351.548 39.032C351.548 38.1654 350.903 37.4628 350.107 37.4628C349.312 37.4628 348.667 38.1654 348.667 39.032C348.667 39.8986 349.312 40.6011 350.107 40.6011Z" fill="#0C0C0C"/>
<path d="M364.179 39.6393C364.974 39.6393 365.619 38.9368 365.619 38.0702C365.619 37.2035 364.974 36.501 364.179 36.501C363.383 36.501 362.738 37.2035 362.738 38.0702C362.738 38.9368 363.383 39.6393 364.179 39.6393Z" fill="#0C0C0C"/>
<path d="M383.977 49.4526C387.53 49.502 390.459 45.4003 390.505 41.5291C390.552 37.6579 387.694 35.4831 384.141 35.4342L382.28 38.0024L380.923 49.4104L383.977 49.4526Z" fill="#E98862"/>
<path d="M380.441 43.2293C380.441 43.2293 379.242 24.0856 373.913 22.9032C370.364 22.1159 361.758 27.6001 353.787 25.9437C350.3 25.2214 346.989 26.1593 346.653 27.954C346.519 28.6647 344.347 18.4525 349.808 10.7045C354.156 4.53685 368.384 2.79212 374.858 4.81468C392.782 10.4167 384.873 36.2737 384.873 36.2737L384.073 42.8737L380.441 43.2293Z" fill="#0C0C0C"/>
<g opacity="0.52">
<path d="M358.102 49.1748C358.095 49.1753 358.087 49.1753 358.08 49.1748C356.935 49.1625 355.015 49.002 355.022 48.069C355.031 47.2956 357.05 38.9703 357.281 38.0235C357.301 37.942 357.349 37.8724 357.416 37.83C357.483 37.7877 357.563 37.776 357.638 37.7976C357.712 37.8192 357.776 37.8723 357.815 37.9452C357.854 38.0181 357.865 38.1048 357.845 38.1863C356.947 41.8736 355.611 47.55 355.606 48.0768C355.717 48.2991 356.899 48.528 358.085 48.5413C358.159 48.5431 358.231 48.576 358.284 48.6334C358.337 48.6908 358.368 48.7682 358.37 48.8496C358.372 48.9311 358.346 49.0103 358.296 49.071C358.246 49.1318 358.177 49.1693 358.102 49.1759V49.1748Z" fill="#0C0C0C"/>
</g>
<path d="M354.196 30.5239C352.992 30.1631 351.721 30.1631 350.518 30.5239C349.927 30.6971 349.363 30.9661 348.845 31.3218C348.333 31.6702 347.864 32.0876 347.448 32.5642C347.371 32.6491 347.328 32.763 347.326 32.8821C347.324 33.0012 347.365 33.1164 347.439 33.2037C347.514 33.291 347.616 33.3437 347.725 33.3509C347.834 33.3581 347.942 33.3191 348.025 33.2421L348.051 33.2177C348.436 32.8292 348.865 32.4952 349.326 32.2236C349.779 31.9533 350.267 31.7592 350.773 31.648C351.77 31.4204 352.804 31.4834 353.771 31.8308L353.811 31.8464C353.969 31.9019 354.141 31.8881 354.29 31.8077C354.439 31.7273 354.554 31.5868 354.609 31.416C354.665 31.2452 354.657 31.0576 354.587 30.8931C354.517 30.7286 354.392 30.6001 354.237 30.535L354.196 30.5239Z" fill="#0C0C0C"/>
<path d="M362.717 31.3113C363.633 30.8265 364.65 30.6139 365.665 30.6951C366.18 30.7315 366.688 30.8529 367.169 31.0551C367.66 31.2577 368.124 31.5265 368.553 31.8552L368.581 31.8752C368.673 31.9399 368.784 31.9633 368.892 31.9406C368.999 31.9179 369.094 31.8508 369.158 31.7534C369.221 31.656 369.247 31.5357 369.231 31.4178C369.215 31.2998 369.157 31.1931 369.071 31.1201C368.6 30.7081 368.084 30.3626 367.534 30.0916C366.977 29.8143 366.386 29.6296 365.778 29.5437C364.542 29.3601 363.283 29.5439 362.134 30.0755C362.057 30.112 361.987 30.1646 361.929 30.2305C361.87 30.2963 361.825 30.374 361.794 30.4591C361.763 30.5442 361.748 30.6352 361.749 30.7266C361.751 30.8181 361.769 30.9084 361.802 30.9923C361.87 31.1618 361.997 31.2951 362.154 31.3628C362.233 31.3963 362.316 31.4128 362.4 31.4112C362.484 31.4096 362.567 31.39 362.644 31.3535L362.68 31.3352L362.717 31.3113Z" fill="#0C0C0C"/>
<path d="M362.133 10.7918C362.942 6.5743 361.466 2.67003 358.835 2.07136C356.205 1.47269 353.417 4.40633 352.609 8.62379C351.8 12.8413 353.276 16.7455 355.906 17.3442C358.537 17.9428 361.325 15.0092 362.133 10.7918Z" fill="#0C0C0C"/>
<path d="M323.322 122.131C324.009 130.928 328.881 185.814 329.544 196.65H419.092C419.607 186.877 421.917 144.142 423.868 125.027C425.731 106.79 428.341 98.4907 426.196 92.8236C422.412 82.8275 410.369 78.364 402.215 77.161C397.235 76.4265 389.745 75.9003 389.745 75.9003C389.745 75.9003 389.111 89.8765 373.989 90.6544C353.405 91.7101 354.78 75.9003 354.678 75.9003C351.343 75.9003 333.191 78.5424 328.652 81.7651C322.241 86.317 320.347 92.5208 320.272 98.2201C320.186 104.784 322.543 112.152 323.322 122.131Z" fill="#367CFF"/>
<path d="M327.862 175.021C327.798 175.021 327.737 174.995 327.69 174.948C327.642 174.902 327.613 174.837 327.607 174.768L324.215 132.494C324.209 132.421 324.23 132.348 324.273 132.291C324.317 132.235 324.379 132.199 324.446 132.193C324.48 132.189 324.513 132.193 324.546 132.204C324.578 132.214 324.608 132.232 324.633 132.256C324.659 132.279 324.68 132.308 324.696 132.341C324.711 132.373 324.72 132.409 324.723 132.446L328.115 174.719C328.121 174.793 328.1 174.865 328.057 174.922C328.013 174.978 327.951 175.013 327.884 175.02C327.877 175.021 327.869 175.021 327.862 175.021Z" fill="#0C0C0C"/>
<path d="M334.356 199.576L346.651 188.708L344.582 189.346C343.91 189.537 343.197 189.443 342.587 189.083C341.976 188.723 341.513 188.125 341.292 187.408C341.19 187.033 341.159 186.64 341.201 186.252C341.243 185.864 341.357 185.49 341.536 185.151C341.715 184.813 341.956 184.518 342.243 184.284C342.53 184.051 342.858 183.883 343.207 183.792L369.038 176.947L371.26 185.911C371.951 188.695 371.863 191.64 371.007 194.369C370.151 197.098 368.567 199.486 366.457 201.228L356.886 209.097C356.396 209.515 355.788 209.737 355.165 209.724C354.543 209.711 353.943 209.464 353.468 209.026C353.047 208.619 352.756 208.076 352.638 207.476C352.519 206.876 352.581 206.251 352.812 205.692C352.771 205.678 352.733 205.653 352.704 205.618C352.678 205.585 352.66 205.545 352.652 205.502C352.644 205.459 352.646 205.414 352.657 205.372L350.894 206.827C350.35 207.296 349.662 207.522 348.97 207.459C348.278 207.396 347.634 207.05 347.167 206.49C346.767 205.973 346.546 205.319 346.544 204.643C346.543 203.967 346.76 203.311 347.158 202.792C347.13 202.788 347.103 202.778 347.079 202.763L346.355 203.361C345.865 203.78 345.257 204.001 344.634 203.988C344.012 203.975 343.412 203.728 342.937 203.29C342.426 202.796 342.11 202.107 342.055 201.365C342.001 200.623 342.212 199.887 342.645 199.312C342.634 199.296 342.626 199.278 342.619 199.26L337.498 203.786C337.244 204.01 336.953 204.178 336.639 204.279C336.326 204.381 335.997 204.414 335.672 204.377C335.347 204.34 335.032 204.234 334.744 204.064C334.457 203.894 334.203 203.665 333.997 203.388C333.791 203.112 333.637 202.794 333.544 202.452C333.451 202.111 333.421 201.753 333.455 201.399C333.488 201.045 333.586 200.701 333.742 200.388C333.898 200.075 334.108 199.798 334.362 199.574L334.356 199.576Z" fill="#E98862"/>
<path opacity="0.2" d="M342.925 199.422C342.952 199.411 342.977 199.396 343 199.376L347.926 194.917C347.951 194.894 347.972 194.866 347.987 194.835C348.002 194.803 348.012 194.769 348.015 194.734C348.018 194.698 348.014 194.663 348.005 194.629C347.995 194.595 347.979 194.563 347.958 194.536C347.937 194.509 347.912 194.486 347.883 194.47C347.854 194.453 347.823 194.443 347.79 194.44C347.758 194.437 347.725 194.441 347.694 194.451C347.663 194.462 347.634 194.479 347.609 194.501L342.683 198.96C342.638 199.001 342.608 199.057 342.597 199.12C342.587 199.182 342.597 199.246 342.626 199.302C342.655 199.357 342.701 199.399 342.756 199.421C342.81 199.443 342.87 199.443 342.925 199.422Z" fill="#0A0A0A"/>
<path opacity="0.2" d="M347.267 202.789C347.293 202.779 347.318 202.764 347.34 202.744L351.237 199.273C351.288 199.227 351.32 199.162 351.327 199.091C351.333 199.019 351.314 198.948 351.272 198.893C351.231 198.837 351.171 198.802 351.105 198.795C351.04 198.788 350.974 198.809 350.923 198.854L347.026 202.326C346.981 202.366 346.95 202.423 346.939 202.486C346.928 202.548 346.938 202.613 346.967 202.669C346.996 202.724 347.042 202.767 347.097 202.789C347.152 202.811 347.212 202.811 347.267 202.789Z" fill="#0A0A0A"/>
<path opacity="0.2" d="M352.971 205.701C353 205.689 353.026 205.672 353.049 205.651L354.854 203.965C354.879 203.942 354.899 203.914 354.914 203.882C354.929 203.85 354.937 203.816 354.94 203.781C354.942 203.745 354.938 203.71 354.928 203.676C354.918 203.642 354.902 203.611 354.881 203.584C354.86 203.557 354.834 203.535 354.805 203.519C354.776 203.503 354.744 203.494 354.712 203.491C354.68 203.488 354.647 203.493 354.616 203.504C354.585 203.515 354.557 203.532 354.532 203.555L352.726 205.242C352.683 205.283 352.653 205.339 352.644 205.401C352.634 205.463 352.645 205.527 352.674 205.582C352.703 205.636 352.749 205.678 352.803 205.7C352.857 205.721 352.917 205.722 352.971 205.701Z" fill="#0A0A0A"/>
<path d="M443.029 172.957L442.934 172.501L426.589 93.7421L394.254 101.706L407.011 163.182L355.907 176.862L362.196 208.278L430.298 194.126C430.451 194.094 430.678 194.044 430.833 194.005C432.903 193.496 434.86 192.547 436.593 191.213C438.325 189.88 439.8 188.187 440.933 186.233C442.065 184.278 442.833 182.1 443.193 179.822C443.552 177.544 443.497 175.211 443.029 172.957Z" fill="#367CFF"/>
<path d="M355.657 176.922C355.643 176.851 355.656 176.778 355.691 176.717C355.726 176.656 355.781 176.612 355.846 176.595L406.722 162.982L398.45 123.178C398.441 123.141 398.438 123.103 398.443 123.066C398.447 123.029 398.459 122.993 398.477 122.96C398.494 122.928 398.518 122.9 398.546 122.878C398.574 122.856 398.606 122.84 398.639 122.832C398.673 122.823 398.708 122.823 398.742 122.829C398.776 122.836 398.808 122.85 398.837 122.871C398.866 122.892 398.89 122.919 398.909 122.951C398.928 122.982 398.941 123.018 398.947 123.055L407.275 163.125C407.29 163.197 407.279 163.272 407.244 163.334C407.209 163.396 407.152 163.441 407.087 163.459L356.207 177.072C356.207 177.072 356.547 178.692 356.644 179.239C356.651 179.31 356.633 179.382 356.592 179.438C356.551 179.494 356.491 179.53 356.426 179.538C356.361 179.547 356.295 179.526 356.244 179.482C356.192 179.437 356.159 179.372 356.151 179.301C356.034 178.702 355.657 176.922 355.657 176.922Z" fill="#0C0C0C"/>
<path d="M357.651 220.79L338.002 154.989C337.657 153.832 336.985 152.825 336.082 152.11C335.179 151.396 334.091 151.011 332.975 151.011H252.924C252.09 151.011 251.267 151.226 250.523 151.639C249.78 152.052 249.137 152.65 248.646 153.386C248.156 154.121 247.832 154.973 247.702 155.871C247.572 156.769 247.639 157.688 247.897 158.552L267.546 224.354C267.891 225.51 268.564 226.517 269.467 227.232C270.37 227.947 271.457 228.331 272.574 228.331H352.624C353.458 228.331 354.281 228.116 355.024 227.703C355.768 227.291 356.411 226.692 356.901 225.956C357.392 225.221 357.715 224.369 357.845 223.471C357.976 222.574 357.909 221.655 357.651 220.79Z" fill="#292A2E"/>
<path opacity="0.2" d="M357.651 220.79L338.002 154.989C337.657 153.832 336.985 152.825 336.082 152.11C335.179 151.396 334.091 151.011 332.975 151.011H252.924C252.09 151.011 251.267 151.226 250.523 151.639C249.78 152.052 249.137 152.65 248.646 153.386C248.156 154.121 247.832 154.973 247.702 155.871C247.572 156.769 247.639 157.688 247.897 158.552L267.546 224.354C267.891 225.51 268.564 226.517 269.467 227.232C270.37 227.947 271.457 228.331 272.574 228.331H352.624C353.458 228.331 354.281 228.116 355.024 227.703C355.768 227.291 356.411 226.692 356.901 225.956C357.392 225.221 357.715 224.369 357.845 223.471C357.976 222.574 357.909 221.655 357.651 220.79Z" fill="white"/>
<path d="M300.468 198.818C305.105 198.818 308.864 194.723 308.864 189.671C308.864 184.62 305.105 180.525 300.468 180.525C295.831 180.525 292.072 184.62 292.072 189.671C292.072 194.723 295.831 198.818 300.468 198.818Z" fill="white"/>
<path d="M221.433 6.95337H62.5516C55.191 6.95337 49.224 13.454 49.224 21.473V231.602C49.224 239.621 55.191 246.122 62.5516 246.122H221.433C228.793 246.122 234.76 239.621 234.76 231.602V21.473C234.76 13.454 228.793 6.95337 221.433 6.95337Z" fill="#292A2E"/>
<path d="M227.305 0.555649H68.4241C61.0635 0.555649 55.0965 7.0563 55.0965 15.0753V225.204C55.0965 233.223 61.0635 239.724 68.4241 239.724H227.305C234.666 239.724 240.633 233.223 240.633 225.204V15.0753C240.633 7.0563 234.666 0.555649 227.305 0.555649Z" fill="white"/>
<path d="M227.305 240.28H68.4241C64.7553 240.275 61.2379 238.685 58.6437 235.859C56.0495 233.033 54.5904 229.201 54.5865 225.204V15.0753C54.5905 11.0784 56.0497 7.24652 58.6439 4.42031C61.2381 1.59411 64.7554 0.00441219 68.4241 0L227.305 0C230.974 0.00455924 234.491 1.59432 237.085 4.42051C239.679 7.2467 241.138 11.0785 241.142 15.0753V225.204C241.138 229.201 239.679 233.033 237.085 235.859C234.491 238.685 230.974 240.275 227.305 240.28ZM68.4241 1.11129C65.0258 1.11541 61.7678 2.58793 59.3649 5.20579C56.962 7.82365 55.6103 11.3731 55.6065 15.0753V225.204C55.6103 228.906 56.962 232.455 59.3649 235.073C61.7678 237.691 65.0258 239.164 68.4241 239.168H227.305C230.703 239.164 233.961 237.691 236.364 235.073C238.767 232.455 240.119 228.906 240.122 225.204V15.0753C240.119 11.3731 238.767 7.8237 236.364 5.20583C233.961 2.58795 230.703 1.11541 227.305 1.11129H68.4241Z" fill="#292A2E"/>
<path d="M52.9564 269.791C71.2311 269.791 86.0457 253.652 86.0457 233.742C86.0457 213.833 71.2311 197.694 52.9564 197.694C34.6817 197.694 19.8672 213.833 19.8672 233.742C19.8672 253.652 34.6817 269.791 52.9564 269.791Z" fill="#292A2E"/>
<path d="M46.0874 229.038C45.6518 229.038 45.234 228.849 44.9259 228.514C44.6179 228.178 44.4447 227.723 44.4446 227.249V218.585C44.4446 213.795 48.2632 209.897 52.9565 209.897C57.6498 209.897 61.4684 213.795 61.4684 218.585V226.654C61.4722 226.892 61.4326 227.128 61.3518 227.349C61.2709 227.569 61.1506 227.77 60.9977 227.94C60.8447 228.109 60.6624 228.244 60.4612 228.336C60.26 228.428 60.044 228.475 59.8258 228.475C59.6077 228.475 59.3917 228.428 59.1905 228.336C58.9893 228.244 58.8069 228.109 58.654 227.94C58.5011 227.77 58.3807 227.569 58.2999 227.349C58.2191 227.128 58.1794 226.892 58.1833 226.654V218.585C58.1833 215.768 55.8371 213.476 52.9565 213.476C50.0758 213.476 47.7297 215.768 47.7297 218.585V227.25C47.7294 227.724 47.5563 228.179 47.2483 228.514C46.9403 228.849 46.5228 229.038 46.0874 229.038Z" fill="white"/>
<path d="M63.4355 225.751H42.4774C41.2551 225.751 40.2643 226.83 40.2643 228.162V249.669C40.2643 251 41.2551 252.08 42.4774 252.08H63.4355C64.6578 252.08 65.6486 251 65.6486 249.669V228.162C65.6486 226.83 64.6578 225.751 63.4355 225.751Z" fill="white"/>
<path d="M50.8699 236.786C50.8697 237.213 50.9796 237.631 51.187 237.993C51.3945 238.354 51.6911 238.645 52.043 238.832V242.325C52.043 242.588 52.139 242.841 52.3098 243.027C52.4806 243.213 52.7123 243.317 52.9539 243.317C53.1955 243.317 53.4272 243.213 53.598 243.027C53.7688 242.841 53.8648 242.588 53.8648 242.325V238.832C54.2 238.655 54.4856 238.383 54.6918 238.045C54.898 237.707 55.0173 237.315 55.0374 236.91C55.0575 236.504 54.9776 236.101 54.806 235.74C54.6344 235.38 54.3774 235.076 54.0617 234.861C53.7459 234.645 53.383 234.526 53.0106 234.515C52.6381 234.504 52.2697 234.602 51.9437 234.798C51.6177 234.995 51.346 235.283 51.1567 235.632C50.9674 235.982 50.8675 236.38 50.8674 236.786H50.8699Z" fill="#292A2E"/>
<path d="M213.431 119.894H82.2985C79.1681 119.894 76.6305 122.658 76.6305 126.069V146.096C76.6305 149.507 79.1681 152.271 82.2985 152.271H213.431C216.561 152.271 219.099 149.507 219.099 146.096V126.069C219.099 122.658 216.561 119.894 213.431 119.894Z" fill="white"/>
<path d="M213.43 152.826H82.2985C80.6606 152.824 79.0903 152.114 77.9321 150.853C76.7739 149.591 76.1224 147.88 76.1205 146.096V126.069C76.1224 124.284 76.7739 122.573 77.932 121.311C79.0902 120.05 80.6605 119.34 82.2985 119.337H213.43C215.068 119.339 216.639 120.049 217.797 121.311C218.955 122.573 219.607 124.284 219.609 126.069V146.096C219.607 147.88 218.955 149.591 217.797 150.853C216.639 152.115 215.068 152.824 213.43 152.826ZM82.2985 120.449C80.9309 120.45 79.6197 121.043 78.6527 122.097C77.6857 123.15 77.1419 124.579 77.1405 126.069V146.096C77.142 147.586 77.6859 149.014 78.6529 150.067C79.6199 151.121 80.931 151.713 82.2985 151.715H213.43C214.798 151.713 216.109 151.121 217.076 150.067C218.043 149.014 218.587 147.586 218.589 146.096V126.069C218.587 124.579 218.043 123.15 217.076 122.097C216.109 121.043 214.798 120.45 213.43 120.449H82.2985Z" fill="#292A2E"/>
<path d="M213.431 166.165H82.2985C79.1681 166.165 76.6305 168.929 76.6305 172.34V192.367C76.6305 195.778 79.1681 198.542 82.2985 198.542H213.431C216.561 198.542 219.099 195.778 219.099 192.367V172.34C219.099 168.929 216.561 166.165 213.431 166.165Z" fill="white"/>
<path d="M213.43 199.097H82.2985C80.6603 199.095 79.0898 198.385 77.9315 197.123C76.7733 195.861 76.122 194.15 76.1205 192.365V172.34C76.1224 170.555 76.7739 168.844 77.9321 167.583C79.0903 166.321 80.6606 165.611 82.2985 165.609H213.43C215.068 165.611 216.639 166.321 217.797 167.582C218.955 168.844 219.607 170.555 219.609 172.34V192.365C219.607 194.15 218.956 195.861 217.798 197.123C216.639 198.385 215.069 199.095 213.43 199.097ZM82.2985 166.72C80.931 166.722 79.6199 167.314 78.6529 168.368C77.6859 169.421 77.142 170.85 77.1405 172.34V192.365C77.142 193.855 77.6859 195.283 78.6529 196.337C79.6199 197.39 80.931 197.983 82.2985 197.984H213.43C214.798 197.983 216.109 197.39 217.076 196.337C218.043 195.283 218.587 193.855 218.589 192.365V172.34C218.587 170.85 218.043 169.421 217.076 168.368C216.109 167.314 214.798 166.722 213.43 166.72H82.2985Z" fill="#292A2E"/>
<path d="M147.864 95.8102C164.679 95.8102 178.31 80.9601 178.31 62.6414C178.31 44.3228 164.679 29.4726 147.864 29.4726C131.05 29.4726 117.419 44.3228 117.419 62.6414C117.419 80.9601 131.05 95.8102 147.864 95.8102Z" fill="white"/>
<path d="M147.864 96.3659C141.742 96.3659 135.757 94.388 130.666 90.6823C125.576 86.9766 121.608 81.7096 119.265 75.5472C116.922 69.3849 116.309 62.604 117.503 56.0621C118.698 49.5202 121.646 43.5111 125.975 38.7947C130.305 34.0782 135.82 30.8663 141.825 29.565C147.83 28.2637 154.054 28.9316 159.711 31.4841C165.367 34.0366 170.202 38.3592 173.603 43.9051C177.005 49.4511 178.82 55.9714 178.82 62.6414C178.811 71.5826 175.547 80.1548 169.743 86.4772C163.94 92.7996 156.072 96.3559 147.864 96.3659ZM147.864 30.0283C141.944 30.0283 136.156 31.941 131.233 35.5246C126.31 39.1082 122.473 44.2017 120.207 50.1609C117.942 56.1202 117.349 62.6776 118.504 69.0039C119.659 75.3303 122.51 81.1414 126.697 85.7024C130.883 90.2634 136.217 93.3696 142.024 94.6279C147.831 95.8863 153.85 95.2405 159.32 92.7721C164.79 90.3036 169.466 86.1235 172.755 80.7603C176.044 75.3971 177.8 69.0917 177.8 62.6414C177.791 53.9949 174.634 45.7052 169.022 39.5912C163.41 33.4771 155.801 30.038 147.864 30.0283Z" fill="#292A2E"/>
<path opacity="0.5" d="M177.634 62.6414C177.643 70.3187 175.142 77.7485 170.58 83.5999C167.77 80.0313 164.285 77.167 160.364 75.2036C156.443 73.2401 152.178 72.224 147.863 72.2248C143.547 72.2257 139.283 73.2435 135.362 75.2085C131.441 77.1734 127.957 80.0391 125.149 83.6088C122.051 79.6257 119.882 74.8868 118.825 69.7947C117.768 64.7027 117.855 59.4079 119.079 54.3604C120.302 49.3129 122.626 44.6618 125.853 40.8022C129.08 36.9427 133.114 33.9887 137.613 32.1914C142.112 30.3941 146.943 29.8065 151.695 30.4785C156.448 31.1506 160.98 33.0624 164.909 36.0516C168.838 39.0408 172.046 43.0191 174.262 47.6483C176.477 52.2775 177.634 57.4209 177.634 62.6414Z" fill="#367CFF"/>
<path d="M170.58 83.5999C167.786 87.1945 164.307 90.083 160.384 92.0644C156.462 94.0459 152.19 95.0727 147.866 95.0735C143.543 95.0744 139.271 94.0492 135.347 92.0693C131.424 90.0894 127.944 87.2023 125.149 83.6088C127.957 80.0391 131.441 77.1734 135.362 75.2085C139.283 73.2435 143.547 72.2257 147.863 72.2248C152.178 72.224 156.443 73.2401 160.364 75.2036C164.285 77.167 167.77 80.0313 170.58 83.5999Z" fill="white"/>
<path d="M147.865 66.1737C154.511 66.1737 159.898 60.3044 159.898 53.0643C159.898 45.8242 154.511 39.9549 147.865 39.9549C141.219 39.9549 135.832 45.8242 135.832 53.0643C135.832 60.3044 141.219 66.1737 147.865 66.1737Z" fill="white"/>
<g opacity="0.4">
<path d="M87.6686 186.296C89.6674 186.296 91.2878 184.531 91.2878 182.353C91.2878 180.176 89.6674 178.411 87.6686 178.411C85.6698 178.411 84.0494 180.176 84.0494 182.353C84.0494 184.531 85.6698 186.296 87.6686 186.296Z" fill="#292A2E"/>
<path d="M98.9897 186.296C100.989 186.296 102.609 184.531 102.609 182.353C102.609 180.176 100.989 178.411 98.9897 178.411C96.9909 178.411 95.3706 180.176 95.3706 182.353C95.3706 184.531 96.9909 186.296 98.9897 186.296Z" fill="#292A2E"/>
<path d="M110.311 186.296C112.31 186.296 113.93 184.531 113.93 182.353C113.93 180.176 112.31 178.411 110.311 178.411C108.312 178.411 106.692 180.176 106.692 182.353C106.692 184.531 108.312 186.296 110.311 186.296Z" fill="#292A2E"/>
<path d="M121.632 186.296C123.631 186.296 125.251 184.531 125.251 182.353C125.251 180.176 123.631 178.411 121.632 178.411C119.633 178.411 118.013 180.176 118.013 182.353C118.013 184.531 119.633 186.296 121.632 186.296Z" fill="#292A2E"/>
<path d="M132.953 186.296C134.951 186.296 136.572 184.531 136.572 182.353C136.572 180.176 134.951 178.411 132.953 178.411C130.954 178.411 129.333 180.176 129.333 182.353C129.333 184.531 130.954 186.296 132.953 186.296Z" fill="#292A2E"/>
<path d="M144.274 186.296C146.273 186.296 147.893 184.531 147.893 182.353C147.893 180.176 146.273 178.411 144.274 178.411C142.275 178.411 140.655 180.176 140.655 182.353C140.655 184.531 142.275 186.296 144.274 186.296Z" fill="#292A2E"/>
<path d="M155.595 186.296C157.594 186.296 159.214 184.531 159.214 182.353C159.214 180.176 157.594 178.411 155.595 178.411C153.596 178.411 151.976 180.176 151.976 182.353C151.976 184.531 153.596 186.296 155.595 186.296Z" fill="#292A2E"/>
</g>
<g opacity="0.3">
<path d="M91.2582 135.845V137.178H86.6103V135.845H91.2582Z" fill="black"/>
<path d="M97.0343 135.845V137.178H92.3864V135.845H97.0343Z" fill="black"/>
<path d="M102.81 135.845V137.178H98.162V135.845H102.81Z" fill="black"/>
<path d="M108.585 135.845V137.178H103.938V135.845H108.585Z" fill="black"/>
<path d="M114.362 135.845V137.178H109.714V135.845H114.362Z" fill="black"/>
<path d="M124.786 143.369C123.752 143.947 122.6 144.23 121.438 144.19C118.352 144.19 115.736 141.73 115.736 137.794C115.736 133.571 118.428 129.921 122.605 129.921C125.879 129.921 128.081 132.422 128.081 135.846C128.081 138.922 126.5 140.725 124.731 140.725C123.979 140.725 123.282 140.17 123.339 138.922H123.263C123.02 139.462 122.642 139.918 122.174 140.236C121.705 140.555 121.164 140.725 120.611 140.725C119.519 140.725 118.578 139.762 118.578 138.143C118.576 137.504 118.69 136.871 118.914 136.281C119.137 135.69 119.466 135.153 119.88 134.702C120.295 134.25 120.787 133.892 121.329 133.649C121.871 133.405 122.452 133.281 123.039 133.284C123.73 133.273 124.416 133.419 125.052 133.714L124.412 137.425C124.13 138.981 124.356 139.703 124.977 139.721C125.937 139.741 127.009 138.347 127.009 135.97C127.009 132.997 125.372 130.865 122.455 130.865C119.388 130.865 116.81 133.509 116.81 137.671C116.81 141.095 118.861 143.206 121.646 143.206C122.634 143.231 123.611 142.985 124.488 142.489L124.786 143.369ZM123.751 134.512C123.445 134.414 123.128 134.366 122.81 134.369C121.154 134.369 119.818 136.07 119.818 138.059C119.818 138.961 120.232 139.615 121.06 139.615C122.151 139.615 123.148 138.098 123.355 136.826L123.751 134.512Z" fill="black"/>
<path d="M134.004 135.845V137.178H129.356V135.845H134.004Z" fill="black"/>
<path d="M139.78 135.845V137.178H135.132V135.845H139.78Z" fill="black"/>
<path d="M145.556 135.845V137.178H140.908V135.845H145.556Z" fill="black"/>
</g>
</g>
<defs>
<clipPath id="clip0_3_2">
<rect width="454" height="479" fill="white"/>
</clipPath>
</defs>
</svg>
