<svg width="443" height="442" viewBox="0 0 443 442" fill="none" xmlns="http://www.w3.org/2000/svg">
<path d="M219.34 441.364C340.478 441.364 438.68 384.665 438.68 314.724C438.68 244.782 340.478 188.084 219.34 188.084C98.2019 188.084 0 244.782 0 314.724C0 384.665 98.2019 441.364 219.34 441.364Z" fill="#EBEBEB"/>
<path d="M64.24 225.184C25.34 247.644 4.11 276.434 0.540001 305.814L234.78 441.074C285.66 439.014 335.54 426.754 374.44 404.294C419.34 378.364 440.66 344.074 438.52 310.074L227.34 188.184C168.59 186.944 109.11 199.274 64.24 225.184Z" fill="#F5F5F5"/>
<path opacity="0.02" d="M86.28 372.884L332.11 231.154C341.68 225.644 343.03 217.464 335.11 212.904C327.19 208.344 313.04 209.114 303.47 214.634L57.84 356.454C48.27 361.974 46.84 370.134 54.74 374.664C62.64 379.194 76.71 378.404 86.28 372.884Z" fill="black"/>
<path d="M286.63 384.924C286.23 380.384 282.38 376.994 278.63 374.384C253.49 356.854 206.71 348.694 198.43 347.824C190.15 346.954 176.97 346.964 170.04 349.624C167.217 350.917 164.85 353.032 163.25 355.694C161.12 359.694 161.25 365.194 164.47 368.334C170.47 374.124 181.13 376.574 189.25 378.484C197.37 380.394 205.71 381.334 213.7 383.704C224.58 386.934 234.51 392.704 245.2 396.534C255.89 400.364 268.2 401.924 278.29 396.774C282.87 394.444 287.07 390.074 286.63 384.924Z" fill="#EBEBEB"/>
<path d="M71.4 10.9636L62.1 16.3336C62.1 15.9136 62.18 15.5036 62.18 15.1036V12.4036C62.18 7.6136 58.81 5.67359 54.66 8.06359C52.8732 9.16024 51.3449 10.6305 50.18 12.3736C49.5 6.37359 44.77 4.10359 39.02 7.37359C32.81 10.9636 27.78 19.6836 27.78 26.8536V30.8536C27.7527 32.4662 28.0947 34.0636 28.78 35.5236L21.01 40.0736C19.7947 40.8653 18.7836 41.9327 18.059 43.1891C17.3344 44.4455 16.9167 45.8553 16.84 47.3036C16.84 49.9536 18.7 51.0336 21.01 49.7036L71.4 20.6136C72.6134 19.8223 73.6233 18.7563 74.3478 17.5019C75.0722 16.2475 75.491 14.84 75.57 13.3936C75.57 10.7136 73.7 9.63359 71.4 10.9636Z" fill="#EBEBEB"/>
<path d="M128.11 30.5036L121.11 34.5036C121.15 34.1952 121.17 33.8846 121.17 33.5736V31.5736C121.17 27.9536 118.63 26.4836 115.5 28.2936C114.154 29.1234 113.002 30.2315 112.12 31.5436C111.61 27.0036 108.04 25.3036 103.7 27.8036C99.01 30.5136 95.21 37.0936 95.21 42.5136V45.5136C95.18 46.7263 95.4262 47.93 95.93 49.0336L90.1 52.4036C89.1826 52.9995 88.419 53.8038 87.8715 54.7509C87.3241 55.698 87.0083 56.7612 86.95 57.8536C86.95 59.8536 88.36 60.6736 90.1 59.6636L128.1 37.6636C129.014 37.0642 129.775 36.2591 130.322 35.3126C130.869 34.3662 131.187 33.3049 131.25 32.2136C131.26 30.3136 129.85 29.5036 128.11 30.5036Z" fill="#EBEBEB"/>
<path d="M64.76 342.534C64.76 342.534 67.92 327.074 64.28 313.074C60.64 299.074 52.79 288.524 43.52 284.674C34.25 280.824 23.71 287.074 31.93 296.394C40.15 305.714 56.24 317.754 57.24 342.944L64.76 342.534Z" fill="#407BFF"/>
<path opacity="0.15" d="M64.76 342.534C64.76 342.534 67.92 327.074 64.28 313.074C60.64 299.074 52.79 288.524 43.52 284.674C34.25 280.824 23.71 287.074 31.93 296.394C40.15 305.714 56.24 317.754 57.24 342.944L64.76 342.534Z" fill="black"/>
<path d="M63.23 337.754H63.34C63.4105 337.75 63.4796 337.732 63.5431 337.701C63.6067 337.67 63.6634 337.627 63.71 337.574C63.7566 337.521 63.7921 337.459 63.8144 337.392C63.8367 337.325 63.8454 337.254 63.84 337.184C61.84 309.184 46.11 292.634 38.05 287.794C37.9903 287.757 37.924 287.733 37.855 287.722C37.7859 287.712 37.7154 287.715 37.6476 287.732C37.5797 287.748 37.5158 287.778 37.4596 287.82C37.4034 287.861 37.356 287.914 37.32 287.974C37.2837 288.033 37.2595 288.1 37.2489 288.169C37.2383 288.238 37.2414 288.308 37.2581 288.376C37.2749 288.444 37.3049 288.508 37.3464 288.564C37.3879 288.62 37.4401 288.668 37.5 288.704C45.39 293.454 60.82 309.704 62.77 337.264C62.78 337.385 62.8309 337.5 62.9145 337.589C62.998 337.678 63.1092 337.736 63.23 337.754V337.754Z" fill="white"/>
<path d="M18.6 318.074C17.6 321.194 19.79 323.364 21.89 325.124C23.5 326.464 25.27 327.934 25.71 329.994C26.6 334.154 21.71 337.994 22.71 342.114C22.9969 342.961 23.4535 343.741 24.0518 344.407C24.6501 345.072 25.3776 345.609 26.19 345.984C27.5423 346.62 28.9276 347.184 30.34 347.674C30.9961 347.877 31.664 348.041 32.34 348.164C34.4263 348.364 36.3895 349.242 37.93 350.664C40.2 353.134 39.93 356.924 40.73 360.184V360.294C41.1468 361.872 41.9434 363.324 43.0504 364.523C44.1574 365.722 45.5411 366.632 47.0807 367.174C48.6203 367.715 50.2691 367.872 51.8831 367.629C53.4971 367.387 55.0272 366.753 56.34 365.784L67.83 357.604C72.38 351.474 71.23 340.494 63.93 336.914C62.38 336.154 60.61 335.704 59.38 334.494C57.88 333.034 57.51 330.784 57.38 328.694C57.25 326.604 57.38 324.424 56.53 322.514C55.34 319.844 52.53 318.224 49.63 317.724C46.27 317.144 42.91 318.514 39.72 317.354C36.53 316.194 33.58 314.354 30.28 313.484C26.65 312.584 22.49 313.064 19.79 315.994C19.2434 316.59 18.8368 317.3 18.6 318.074V318.074Z" fill="#407BFF"/>
<path d="M52.26 336.404C52.2308 336.326 52.1784 336.26 52.11 336.214C43.57 324.074 30.17 318.364 25.65 317.354C25.5889 317.339 25.5254 317.337 25.4634 317.347C25.4014 317.357 25.3421 317.38 25.2889 317.413C25.2358 317.447 25.1899 317.491 25.154 317.542C25.1181 317.594 25.093 317.652 25.08 317.714C25.0653 317.774 25.0631 317.837 25.0735 317.898C25.0838 317.96 25.1065 318.018 25.1401 318.071C25.1738 318.123 25.2177 318.168 25.2693 318.203C25.3208 318.238 25.3789 318.262 25.44 318.274C29.73 319.274 42.17 324.544 50.54 335.654C47.129 334.504 43.5171 334.071 39.931 334.382C36.3448 334.694 32.8617 335.743 29.7 337.464C29.5945 337.533 29.5207 337.641 29.4945 337.765C29.4683 337.888 29.4918 338.017 29.56 338.124C29.6024 338.187 29.6587 338.239 29.7246 338.278C29.7904 338.316 29.8641 338.338 29.94 338.344C30.0356 338.342 30.1289 338.314 30.21 338.264C33.4509 336.507 37.0373 335.481 40.717 335.258C44.3968 335.035 48.0807 335.621 51.51 336.974C56.4989 344.115 59.0007 352.7 58.63 361.404C58.6244 361.522 58.665 361.639 58.7433 361.728C58.8216 361.818 58.9315 361.873 59.05 361.884V361.884C59.1125 361.886 59.175 361.876 59.2337 361.855C59.2924 361.833 59.3461 361.8 59.3918 361.757C59.4374 361.714 59.4741 361.662 59.4995 361.605C59.525 361.548 59.5387 361.486 59.54 361.424C59.9313 352.51 57.3725 343.716 52.26 336.404V336.404Z" fill="white"/>
<path d="M337.75 219.224V39.9436C337.749 37.1361 337.009 34.3783 335.605 31.9472C334.201 29.5161 332.181 27.4973 329.75 26.0936L289.13 2.64359C286.698 1.2393 283.939 0.5 281.13 0.5C278.321 0.5 275.562 1.2393 273.13 2.64359L102.53 101.144C100.097 102.546 98.0762 104.563 96.67 106.994L56.05 177.354C54.647 179.786 53.9089 182.545 53.91 185.354V364.624C53.91 366.994 55.47 369.354 58.59 371.154C64.84 374.764 74.97 374.764 81.22 371.154C84.35 369.354 85.91 366.994 85.91 364.624V189.624L122.24 126.694L281.13 34.9736L305.75 49.1836V219.184C305.75 221.554 307.31 223.924 310.44 225.724C316.69 229.334 326.82 229.334 333.07 225.724C336.2 223.914 337.76 221.554 337.75 219.184V219.224Z" fill="#455A64"/>
<path d="M85.91 189.644C85.91 189.644 80.81 182.644 65.55 181.194C65.55 181.194 76.41 178.194 88.35 185.414L85.91 189.644Z" fill="#37474F"/>
<path d="M122.24 126.714C122.24 126.714 123.52 118.314 114.34 111.174C114.34 111.174 122.78 113.724 125.63 124.754L122.24 126.714Z" fill="#37474F"/>
<path d="M281.13 34.9736C284.13 31.9136 286.6 24.0636 285.98 17.0236C285.98 17.0236 289.53 24.4236 284.32 36.8136L281.13 34.9736Z" fill="#37474F"/>
<path d="M305.75 49.1836C313.95 49.5136 322.03 46.4436 325.83 40.9436C325.83 40.9436 322.61 52.0336 305.75 53.1436V49.1836Z" fill="#37474F"/>
<path d="M245.13 55.7536V28.9136C245.13 27.5336 244.13 26.9736 242.97 27.6636L141.68 86.1336C141.051 86.5459 140.529 87.1 140.153 87.7514C139.778 88.4027 139.561 89.1331 139.52 89.8836V116.734L245.13 55.7536Z" fill="#37474F"/>
<path d="M247.14 22.8236C246.893 22.7084 246.62 22.6616 246.349 22.688C246.079 22.7144 245.82 22.813 245.6 22.9736L144.34 81.4436C143.709 81.8536 143.183 82.407 142.806 83.0586C142.429 83.7103 142.211 84.4418 142.17 85.1936V122.414C142.141 122.683 142.186 122.955 142.298 123.201C142.411 123.448 142.588 123.659 142.81 123.814L146.87 126.154C147.115 126.269 147.386 126.316 147.656 126.29C147.925 126.263 148.182 126.164 148.4 126.004L249.66 67.5236C250.291 67.1136 250.817 66.5602 251.194 65.9086C251.571 65.2569 251.789 64.5254 251.83 63.7736V26.5636C251.858 26.2918 251.813 26.0175 251.699 25.7693C251.584 25.5212 251.405 25.3085 251.18 25.1536L247.14 22.8236Z" fill="#407BFF"/>
<path d="M148.34 83.7936L249.66 25.3136C250.86 24.6236 251.83 25.1836 251.83 26.5636V63.7736C251.789 64.5254 251.571 65.2569 251.194 65.9086C250.817 66.5602 250.291 67.1136 249.66 67.5236L148.34 126.004C147.14 126.694 146.17 126.134 146.17 124.754V87.5436C146.211 86.7918 146.429 86.0603 146.806 85.4086C147.183 84.757 147.709 84.2036 148.34 83.7936V83.7936Z" fill="#407BFF"/>
<path opacity="0.15" d="M146.21 124.754C146.19 124.998 146.226 125.243 146.314 125.472C146.403 125.7 146.541 125.906 146.72 126.074L142.78 123.804C142.559 123.648 142.385 123.436 142.274 123.19C142.163 122.943 142.12 122.672 142.15 122.404V85.1936C142.175 84.4401 142.395 83.7059 142.79 83.0636L146.85 85.4036C146.455 86.0494 146.234 86.7869 146.21 87.5436V124.754Z" fill="black"/>
<path opacity="0.4" d="M247.14 22.8236L251.07 25.0736C250.834 25.0017 250.584 24.9841 250.34 25.0222C250.096 25.0603 249.863 25.1531 249.66 25.2936L148.34 83.7936C147.701 84.1906 147.174 84.7449 146.81 85.4036L142.79 83.0736C143.154 82.4121 143.68 81.8544 144.32 81.4536L245.6 22.9636C245.822 22.8065 246.081 22.7109 246.351 22.6863C246.622 22.6617 246.894 22.7091 247.14 22.8236V22.8236Z" fill="white"/>
<path d="M174.41 78.4436C174.466 78.3916 174.539 78.3626 174.615 78.3626C174.691 78.3626 174.764 78.3916 174.82 78.4436C174.943 78.5919 175.003 78.7817 174.99 78.9736V82.4836C174.986 82.7363 174.928 82.9852 174.82 83.2136C174.735 83.4169 174.593 83.5909 174.41 83.7136L167.98 87.4236V91.9536L173.98 88.4936C174.038 88.4456 174.11 88.4193 174.185 88.4193C174.26 88.4193 174.332 88.4456 174.39 88.4936C174.452 88.5662 174.499 88.6505 174.528 88.7415C174.557 88.8325 174.568 88.9284 174.56 89.0236V92.5236C174.557 92.7764 174.499 93.0256 174.39 93.2536C174.305 93.4569 174.163 93.6309 173.98 93.7536L167.98 97.2136V104.364C167.981 104.614 167.923 104.86 167.81 105.084C167.729 105.292 167.586 105.47 167.4 105.594L164.59 107.214C164.532 107.262 164.46 107.288 164.385 107.288C164.31 107.288 164.238 107.262 164.18 107.214C164.056 107.066 163.994 106.876 164.01 106.684V85.3336C164.015 85.081 164.073 84.8323 164.18 84.6036C164.267 84.402 164.409 84.2288 164.59 84.1036L174.41 78.4436Z" fill="#FAFAFA"/>
<path d="M177.85 99.6136C177.793 99.6635 177.72 99.6911 177.645 99.6911C177.57 99.6911 177.497 99.6635 177.44 99.6136C177.376 99.5419 177.328 99.4577 177.299 99.3665C177.27 99.2752 177.26 99.1789 177.27 99.0836V77.6836C177.269 77.4303 177.327 77.1803 177.44 76.9536C177.521 76.7483 177.665 76.5735 177.85 76.4536L180.66 74.8336C180.718 74.7856 180.79 74.7593 180.865 74.7593C180.94 74.7593 181.012 74.7856 181.07 74.8336C181.193 74.9819 181.253 75.1717 181.24 75.3636V96.7336C181.237 96.9864 181.179 97.2356 181.07 97.4636C180.985 97.6669 180.843 97.8409 180.66 97.9636L177.85 99.6136Z" fill="#FAFAFA"/>
<path d="M194.03 90.2736C193.942 90.3342 193.837 90.3667 193.73 90.3667C193.623 90.3667 193.518 90.3342 193.43 90.2736C193.313 90.1951 193.214 90.0929 193.14 89.9736L188.22 81.5036V92.6836C188.221 92.9369 188.163 93.1869 188.05 93.4136C187.969 93.6189 187.825 93.7937 187.64 93.9136L184.83 95.5336C184.774 95.5856 184.701 95.6146 184.625 95.6146C184.549 95.6146 184.476 95.5856 184.42 95.5336C184.296 95.3863 184.234 95.1958 184.25 95.0036V73.6536C184.254 73.4009 184.312 73.152 184.42 72.9236C184.501 72.7183 184.645 72.5435 184.83 72.4236L187.06 71.1336C187.31 70.9936 187.5 70.9736 187.65 71.1336C187.766 71.2092 187.864 71.3079 187.94 71.4236L192.86 79.8936V68.6736C192.863 68.4228 192.924 68.1762 193.04 67.9536C193.118 67.7493 193.258 67.5745 193.44 67.4536L196.26 65.8236C196.318 65.7756 196.39 65.7493 196.465 65.7493C196.54 65.7493 196.612 65.7756 196.67 65.8236C196.794 65.9709 196.856 66.1614 196.84 66.3536V87.7236C196.835 87.9762 196.777 88.2249 196.67 88.4536C196.583 88.6552 196.441 88.8283 196.26 88.9536L194.03 90.2736Z" fill="#FAFAFA"/>
<path d="M200.43 86.5736C200.373 86.6235 200.3 86.6511 200.225 86.6511C200.15 86.6511 200.077 86.6235 200.02 86.5736C199.956 86.5019 199.908 86.4177 199.879 86.3265C199.85 86.2352 199.84 86.1389 199.85 86.0436V64.6436C199.85 64.3904 199.908 64.1407 200.02 63.9136C200.101 63.7083 200.245 63.5335 200.43 63.4136L203.24 61.7936C203.298 61.7456 203.37 61.7193 203.445 61.7193C203.52 61.7193 203.592 61.7456 203.65 61.7936C203.712 61.8662 203.759 61.9505 203.788 62.0415C203.817 62.1325 203.828 62.2284 203.82 62.3236V83.6936C203.816 83.9431 203.758 84.1888 203.65 84.4136C203.569 84.6189 203.425 84.7937 203.24 84.9136L200.43 86.5736Z" fill="#FAFAFA"/>
<path d="M212.42 56.1636C213.179 55.6823 214.044 55.3939 214.94 55.3236C215.633 55.2645 216.329 55.4106 216.94 55.7436C217.49 56.0562 217.94 56.5171 218.24 57.0736C218.555 57.6686 218.723 58.3304 218.73 59.0036C218.732 59.2088 218.684 59.4114 218.59 59.5936C218.531 59.7559 218.422 59.8958 218.28 59.9936L215.47 61.6136C215.328 61.7167 215.155 61.7694 214.98 61.7636C214.844 61.7352 214.717 61.6733 214.61 61.5836C214.56 61.5836 214.5 61.4736 214.4 61.3736C214.293 61.259 214.159 61.1731 214.01 61.1236C213.795 61.0503 213.564 61.0331 213.34 61.0736C213.006 61.1315 212.687 61.2537 212.4 61.4336C212.123 61.5927 211.859 61.7733 211.61 61.9736C211.368 62.1671 211.147 62.3849 210.95 62.6236C210.749 62.8558 210.587 63.1193 210.47 63.4036C210.349 63.7021 210.288 64.0215 210.29 64.3436C210.27 64.5966 210.34 64.8485 210.49 65.0536C210.686 65.207 210.932 65.2819 211.18 65.2636C211.613 65.2497 212.042 65.1859 212.46 65.0736L214.46 64.5636C215.128 64.3629 215.823 64.2717 216.52 64.2936C217.059 64.3106 217.576 64.5078 217.99 64.8536C218.425 65.2434 218.732 65.7559 218.87 66.3236C219.088 67.1485 219.186 68.0007 219.16 68.8536C219.163 69.9719 218.997 71.0843 218.67 72.1536C218.339 73.2288 217.872 74.2572 217.28 75.2136C216.694 76.1848 215.989 77.0785 215.18 77.8736C214.381 78.649 213.487 79.3209 212.52 79.8736C211.712 80.3758 210.804 80.6966 209.86 80.8136C209.147 80.8984 208.426 80.766 207.79 80.4336C207.2 80.1147 206.722 79.6226 206.42 79.0236C206.077 78.3485 205.902 77.6007 205.91 76.8436C205.909 76.6397 205.953 76.4381 206.04 76.2536C206.106 76.0924 206.217 75.9535 206.36 75.8536L209.17 74.2336C209.308 74.1352 209.471 74.0796 209.64 74.0736C209.769 74.0887 209.89 74.1408 209.99 74.2236L210.25 74.5036C210.376 74.6502 210.533 74.7664 210.71 74.8436C210.938 74.9495 211.19 74.9943 211.44 74.9736C211.825 74.9217 212.194 74.7851 212.52 74.5736C213.228 74.184 213.869 73.6844 214.42 73.0936C214.905 72.615 215.181 71.9647 215.19 71.2836C215.205 71.1587 215.187 71.0321 215.138 70.9163C215.089 70.8005 215.01 70.6996 214.91 70.6236C214.651 70.493 214.357 70.4475 214.07 70.4936C213.586 70.5432 213.107 70.637 212.64 70.7736C212.06 70.9336 211.38 71.1036 210.59 71.2936C209.11 71.6636 208.04 71.4736 207.36 70.7336C206.68 69.9936 206.36 68.6636 206.36 66.7336C206.36 65.7196 206.498 64.7103 206.77 63.7336C207.058 62.6893 207.467 61.6824 207.99 60.7336C208.519 59.766 209.164 58.8661 209.91 58.0536C210.647 57.3013 211.493 56.6641 212.42 56.1636Z" fill="#FAFAFA"/>
<path d="M233.45 44.3536C233.508 44.3056 233.58 44.2793 233.655 44.2793C233.73 44.2793 233.802 44.3056 233.86 44.3536C233.922 44.4262 233.969 44.5105 233.998 44.6015C234.027 44.6925 234.038 44.7884 234.03 44.8836V66.2736C234.027 66.5264 233.969 66.7756 233.86 67.0036C233.779 67.2089 233.635 67.3837 233.45 67.5036L230.64 69.1336C230.583 69.1835 230.51 69.2111 230.435 69.2111C230.36 69.2111 230.287 69.1835 230.23 69.1336C230.166 69.0619 230.118 68.9777 230.089 68.8865C230.06 68.7952 230.05 68.6989 230.06 68.6036V60.4636L225.34 63.2236V71.3236C225.338 71.5777 225.277 71.8279 225.16 72.0536C225.079 72.2589 224.935 72.4337 224.75 72.5536L221.94 74.1836C221.882 74.2298 221.809 74.255 221.735 74.255C221.661 74.255 221.588 74.2298 221.53 74.1836C221.466 74.1104 221.417 74.0245 221.388 73.9315C221.359 73.8386 221.349 73.7405 221.36 73.6436V52.2536C221.364 52.0009 221.422 51.752 221.53 51.5236C221.615 51.3202 221.757 51.1463 221.94 51.0236L224.75 49.4036C224.807 49.3537 224.88 49.3261 224.955 49.3261C225.03 49.3261 225.103 49.3537 225.16 49.4036C225.224 49.4751 225.273 49.559 225.304 49.6501C225.335 49.7412 225.347 49.8377 225.34 49.9336V57.9336L230.11 55.1736V47.1736C230.11 46.9204 230.168 46.6707 230.28 46.4436C230.361 46.2383 230.505 46.0635 230.69 45.9436L233.45 44.3536Z" fill="#FAFAFA"/>
<path d="M221.82 89.0736C221.575 88.9538 221.302 88.9035 221.03 88.9282C220.759 88.9529 220.499 89.0516 220.28 89.2136L178.71 113.214C178.08 113.624 177.556 114.178 177.18 114.83C176.805 115.481 176.589 116.213 176.55 116.964V135.424C176.523 135.694 176.567 135.967 176.68 136.215C176.792 136.463 176.968 136.676 177.19 136.834L181.25 139.174C181.495 139.287 181.766 139.333 182.035 139.306C182.304 139.28 182.561 139.182 182.78 139.024L224.35 115.024C224.981 114.614 225.507 114.06 225.884 113.409C226.261 112.757 226.479 112.025 226.52 111.274V92.7736C226.549 92.5017 226.505 92.227 226.39 91.9787C226.276 91.7303 226.096 91.5177 225.87 91.3636L221.82 89.0736Z" fill="#455A64"/>
<path d="M180.61 137.754C180.589 137.997 180.623 138.242 180.71 138.471C180.796 138.699 180.933 138.905 181.11 139.074L177.18 136.804C176.957 136.65 176.779 136.438 176.667 136.192C176.554 135.945 176.51 135.673 176.54 135.404V116.944C176.565 116.19 176.785 115.456 177.18 114.814L181.24 117.154C180.853 117.802 180.636 118.538 180.61 119.294V137.754Z" fill="#263238"/>
<path d="M221.82 89.0736L225.75 91.3436C225.514 91.2717 225.264 91.2541 225.02 91.2922C224.776 91.3303 224.543 91.4231 224.34 91.5636L182.77 115.564C182.135 115.966 181.61 116.519 181.24 117.174L177.18 114.834C177.544 114.169 178.075 113.611 178.72 113.214L220.28 89.2136C220.502 89.0565 220.761 88.9609 221.031 88.9363C221.302 88.9117 221.574 88.9591 221.82 89.0736V89.0736Z" fill="#37474F"/>
<path d="M187.34 118.074C187.682 117.858 188.068 117.721 188.47 117.674C188.736 117.63 189.009 117.683 189.24 117.824C189.442 117.967 189.604 118.16 189.71 118.384C189.831 118.602 189.916 118.838 189.96 119.084C190 119.308 190.02 119.536 190.02 119.764V125.504C190.018 125.755 189.998 126.005 189.96 126.254C189.907 126.594 189.824 126.929 189.71 127.254C189.59 127.635 189.433 128.003 189.24 128.354C188.791 129.161 188.136 129.834 187.34 130.304C187.078 130.46 186.795 130.577 186.5 130.654C186.287 130.707 186.063 130.707 185.85 130.654C185.671 130.629 185.501 130.557 185.36 130.444C185.224 130.336 185.108 130.203 185.02 130.054C184.936 129.897 184.866 129.733 184.81 129.564C184.762 129.393 184.725 129.219 184.7 129.044C184.69 128.887 184.69 128.73 184.7 128.574V122.834C184.691 122.664 184.691 122.493 184.7 122.324C184.7 122.134 184.76 121.924 184.81 121.674C184.86 121.424 184.94 121.184 185.02 120.934C185.12 120.668 185.233 120.407 185.36 120.154C185.498 119.882 185.662 119.624 185.85 119.384C186.044 119.124 186.262 118.883 186.5 118.664C186.759 118.439 187.04 118.241 187.34 118.074ZM187.34 129.654C187.567 129.515 187.773 129.343 187.95 129.144C188.117 128.953 188.258 128.741 188.37 128.514C188.471 128.294 188.555 128.067 188.62 127.834C188.682 127.625 188.726 127.41 188.75 127.194C188.764 127.017 188.764 126.84 188.75 126.664V120.074C188.765 119.911 188.765 119.747 188.75 119.584C188.729 119.415 188.685 119.25 188.62 119.094C188.562 118.947 188.473 118.814 188.36 118.704C188.246 118.607 188.099 118.558 187.95 118.564C187.734 118.573 187.523 118.638 187.34 118.754C187.109 118.884 186.906 119.057 186.74 119.264C186.571 119.449 186.429 119.658 186.32 119.884C186.216 120.102 186.132 120.33 186.07 120.564C186.007 120.776 185.964 120.993 185.94 121.214C185.925 121.39 185.925 121.567 185.94 121.744V128.374C185.925 128.537 185.925 128.701 185.94 128.864C185.958 129.033 186.002 129.198 186.07 129.354C186.123 129.501 186.209 129.634 186.32 129.744C186.438 129.842 186.587 129.895 186.74 129.894C186.954 129.882 187.162 129.813 187.34 129.694V129.654Z" fill="#407BFF"/>
<path d="M191.34 116.484L193.41 114.664V126.664L192.17 127.384V117.194C192.185 117.038 192.153 116.882 192.08 116.744C192.02 116.674 191.94 116.664 191.83 116.744L191.34 117.074V116.484Z" fill="#407BFF"/>
<path d="M196.03 116.284V117.554C196.037 117.62 196.037 117.687 196.03 117.754C196.016 117.804 195.989 117.849 195.95 117.884C195.889 117.954 195.814 118.012 195.73 118.054L195.12 118.414C194.98 118.494 194.9 118.514 194.86 118.494C194.82 118.474 194.86 118.394 194.86 118.274V116.874C194.86 116.874 194.86 116.814 194.86 116.764C194.881 116.712 194.916 116.667 194.96 116.634C195.015 116.584 195.076 116.54 195.14 116.504L195.75 116.154C195.9 116.074 195.98 116.044 196.02 116.074C196.06 116.104 196.03 116.174 196.03 116.284ZM196.03 123.884V125.154C196.037 125.22 196.037 125.287 196.03 125.354C196.016 125.404 195.989 125.449 195.95 125.484C195.889 125.554 195.814 125.612 195.73 125.654L195.12 126.014C194.98 126.094 194.9 126.114 194.86 126.094C194.82 126.074 194.86 125.994 194.86 125.874V124.474C194.86 124.474 194.86 124.414 194.86 124.364C194.883 124.313 194.918 124.269 194.96 124.234C195.015 124.184 195.076 124.141 195.14 124.104L195.75 123.754C195.9 123.674 195.98 123.644 196.02 123.674C196.06 123.704 196.03 123.774 196.03 123.884Z" fill="#407BFF"/>
<path d="M200.15 110.744C200.492 110.525 200.878 110.385 201.28 110.334C201.548 110.294 201.82 110.351 202.05 110.494C202.249 110.636 202.411 110.825 202.52 111.044C202.64 111.262 202.724 111.499 202.77 111.744C202.809 111.968 202.829 112.196 202.83 112.424V118.164C202.828 118.415 202.808 118.665 202.77 118.914C202.718 119.254 202.634 119.589 202.52 119.914C202.399 120.294 202.241 120.663 202.05 121.014C201.837 121.378 201.578 121.714 201.28 122.014C200.95 122.368 200.569 122.671 200.15 122.914C199.888 123.07 199.605 123.187 199.31 123.264C199.096 123.311 198.874 123.311 198.66 123.264C198.483 123.231 198.316 123.159 198.17 123.054C198.034 122.946 197.918 122.813 197.83 122.664C197.746 122.503 197.676 122.336 197.62 122.164C197.571 121.996 197.534 121.826 197.51 121.654C197.5 121.497 197.5 121.34 197.51 121.184V115.434C197.501 115.267 197.501 115.1 197.51 114.934C197.51 114.744 197.57 114.534 197.62 114.284C197.67 114.034 197.75 113.794 197.83 113.544C197.926 113.276 198.039 113.016 198.17 112.764C198.312 112.494 198.476 112.236 198.66 111.994C198.854 111.734 199.072 111.493 199.31 111.274C199.57 111.066 199.851 110.889 200.15 110.744V110.744ZM200.15 122.314C200.379 122.181 200.585 122.012 200.76 121.814C200.927 121.623 201.068 121.411 201.18 121.184C201.281 120.964 201.365 120.737 201.43 120.504C201.492 120.294 201.535 120.08 201.56 119.864C201.574 119.684 201.574 119.503 201.56 119.324V112.694C201.575 112.531 201.575 112.367 201.56 112.204C201.54 112.035 201.496 111.87 201.43 111.714C201.372 111.567 201.283 111.434 201.17 111.324C201.057 111.224 200.911 111.17 200.76 111.174C200.543 111.187 200.333 111.256 200.15 111.374C199.922 111.503 199.719 111.673 199.55 111.874C199.383 112.064 199.242 112.276 199.13 112.504C199.024 112.721 198.941 112.949 198.88 113.184C198.818 113.393 198.775 113.607 198.75 113.824C198.75 114.014 198.75 114.194 198.75 114.354V120.994C198.74 121.157 198.74 121.32 198.75 121.484C198.776 121.651 198.819 121.815 198.88 121.974C198.936 122.119 199.021 122.252 199.13 122.364C199.249 122.459 199.398 122.508 199.55 122.504C199.764 122.5 199.973 122.434 200.15 122.314V122.314Z" fill="#407BFF"/>
<path d="M204.07 109.074L206.13 107.254V119.304L204.89 120.014V109.824C204.905 109.668 204.873 109.512 204.8 109.374C204.74 109.304 204.66 109.294 204.55 109.374C204.44 109.454 204.36 109.514 204.07 109.764V109.074Z" fill="#407BFF"/>
<path d="M208.8 108.914V110.184C208.807 110.247 208.807 110.31 208.8 110.374C208.787 110.427 208.759 110.475 208.72 110.514C208.659 110.584 208.584 110.642 208.5 110.684L207.89 111.034C207.75 111.114 207.67 111.144 207.63 111.124C207.59 111.104 207.58 111.024 207.58 110.894V109.504C207.578 109.467 207.578 109.43 207.58 109.394C207.601 109.342 207.636 109.297 207.68 109.264C207.733 109.211 207.793 109.167 207.86 109.134L208.47 108.774C208.62 108.694 208.7 108.674 208.74 108.694C208.78 108.714 208.8 108.794 208.8 108.914ZM208.8 116.514V117.784C208.807 117.847 208.807 117.91 208.8 117.974C208.787 118.027 208.759 118.075 208.72 118.114C208.656 118.182 208.582 118.239 208.5 118.284L207.89 118.634C207.75 118.714 207.67 118.744 207.63 118.724C207.59 118.704 207.58 118.624 207.58 118.494V117.074C207.578 117.037 207.578 117 207.58 116.964C207.601 116.912 207.636 116.867 207.68 116.834C207.733 116.781 207.793 116.737 207.86 116.704L208.47 116.344C208.62 116.264 208.7 116.244 208.74 116.264C208.78 116.284 208.8 116.394 208.8 116.514Z" fill="#407BFF"/>
<path d="M212.92 103.364C213.264 103.152 213.649 103.016 214.05 102.964C214.318 102.917 214.593 102.974 214.82 103.124C215.022 103.263 215.183 103.453 215.29 103.674C215.411 103.892 215.496 104.128 215.54 104.374C215.579 104.598 215.599 104.826 215.6 105.054V110.794C215.598 111.045 215.578 111.295 215.54 111.544C215.488 111.884 215.404 112.219 215.29 112.544C215.169 112.921 215.011 113.286 214.82 113.634C214.611 114.019 214.352 114.376 214.05 114.694C213.719 115.044 213.339 115.344 212.92 115.584C212.658 115.742 212.376 115.864 212.08 115.944C211.865 115.986 211.645 115.986 211.43 115.944C211.252 115.908 211.085 115.833 210.94 115.724C210.806 115.617 210.691 115.489 210.6 115.344C210.516 115.183 210.446 115.016 210.39 114.844C210.34 114.673 210.303 114.499 210.28 114.324C210.27 114.167 210.27 114.01 210.28 113.854V108.114C210.271 107.944 210.271 107.773 210.28 107.604C210.28 107.424 210.34 107.204 210.39 106.964C210.44 106.724 210.52 106.474 210.6 106.224C210.797 105.665 211.077 105.139 211.43 104.664C211.625 104.408 211.842 104.17 212.08 103.954C212.339 103.729 212.621 103.531 212.92 103.364V103.364ZM212.92 114.944C213.154 114.813 213.36 114.64 213.53 114.434C213.702 114.246 213.843 114.034 213.95 113.804C214.057 113.586 214.141 113.358 214.2 113.124C214.262 112.915 214.306 112.7 214.33 112.484C214.345 112.307 214.345 112.13 214.33 111.954V105.324C214.345 105.157 214.345 104.99 214.33 104.824C214.31 104.658 214.266 104.496 214.2 104.344C214.145 104.195 214.056 104.061 213.94 103.954C213.885 103.902 213.821 103.863 213.75 103.837C213.68 103.811 213.605 103.8 213.53 103.804C213.314 103.813 213.103 103.878 212.92 103.994C212.692 104.127 212.489 104.3 212.32 104.504C212.151 104.692 212.009 104.905 211.9 105.134C211.707 105.552 211.579 105.997 211.52 106.454C211.511 106.63 211.511 106.807 211.52 106.984V113.614C211.51 113.78 211.51 113.947 211.52 114.114C211.546 114.281 211.589 114.445 211.65 114.604C211.708 114.748 211.793 114.88 211.9 114.994C212.019 115.089 212.168 115.138 212.32 115.134C212.533 115.125 212.741 115.06 212.92 114.944Z" fill="#407BFF"/>
<path d="M219.88 111.564C219.572 111.749 219.233 111.878 218.88 111.944C218.649 112.016 218.401 112.016 218.17 111.944C217.992 111.859 217.832 111.74 217.7 111.594C217.563 111.433 217.461 111.246 217.4 111.044C217.334 110.848 217.283 110.647 217.25 110.444C217.24 110.257 217.24 110.07 217.25 109.884V104.074C217.241 103.904 217.241 103.733 217.25 103.564C217.25 103.384 217.32 103.164 217.38 102.914C217.439 102.66 217.513 102.409 217.6 102.164C217.701 101.894 217.818 101.63 217.95 101.374C218.094 101.102 218.258 100.841 218.44 100.594C218.635 100.332 218.856 100.091 219.1 99.8736C219.361 99.6376 219.646 99.4298 219.95 99.2536L220.15 99.1336C220.487 98.958 220.847 98.8301 221.22 98.7536C221.545 98.6609 221.883 98.6237 222.22 98.6436L222.01 99.4936L221.08 99.5636C220.756 99.5679 220.438 99.6466 220.15 99.7936C219.857 99.9636 219.602 100.192 219.4 100.464C219.183 100.725 219.007 101.018 218.88 101.334C218.764 101.609 218.671 101.893 218.6 102.184C218.545 102.42 218.515 102.661 218.51 102.904V105.074L219.77 103.574C219.971 103.348 220.184 103.134 220.41 102.934C220.574 102.791 220.748 102.661 220.93 102.544C221.097 102.409 221.302 102.331 221.517 102.322C221.731 102.313 221.942 102.373 222.12 102.494C222.304 102.648 222.448 102.846 222.537 103.069C222.626 103.293 222.658 103.535 222.63 103.774V107.074C222.627 107.268 222.61 107.462 222.58 107.654C222.537 107.9 222.48 108.144 222.41 108.384C222.332 108.671 222.225 108.949 222.09 109.214C221.942 109.501 221.775 109.778 221.59 110.044C221.384 110.342 221.142 110.614 220.87 110.854C220.566 111.125 220.234 111.363 219.88 111.564V111.564ZM218.49 105.624V109.574C218.48 109.737 218.48 109.9 218.49 110.064C218.507 110.235 218.548 110.403 218.61 110.564C218.657 110.714 218.74 110.851 218.85 110.964C218.902 111.015 218.965 111.056 219.034 111.082C219.103 111.107 219.177 111.118 219.25 111.114C219.463 111.111 219.671 111.049 219.85 110.934C220.065 110.802 220.258 110.637 220.42 110.444C220.585 110.251 220.726 110.04 220.84 109.814C220.954 109.589 221.048 109.355 221.12 109.114C221.195 108.899 221.252 108.678 221.29 108.454C221.32 108.275 221.336 108.095 221.34 107.914V104.834C221.372 104.445 221.281 104.057 221.08 103.724C221.043 103.67 220.994 103.624 220.938 103.59C220.882 103.556 220.82 103.534 220.755 103.526C220.69 103.517 220.624 103.523 220.561 103.541C220.498 103.56 220.44 103.591 220.39 103.634C220.214 103.75 220.055 103.891 219.92 104.054L218.49 105.624Z" fill="#407BFF"/>
<path d="M241.86 237.454C231.86 239.994 226.77 238.214 218.98 235.864C217.14 251.494 213.7 274.314 210.58 293.924C204.43 292.584 200.35 293.264 194.67 294.474C192.04 295.044 188.67 295.874 185.97 296.244C183.27 296.614 179.22 297.574 177.6 296.914C175.6 296.084 174.47 294.604 172.13 294.834C171.177 294.927 170.255 295.225 169.428 295.708C168.601 296.192 167.889 296.849 167.34 297.634C165.74 300.014 165.9 303.154 164.78 305.794C163.76 307.876 162.287 309.703 160.47 311.144C159.921 311.602 159.406 312.1 158.93 312.634C158.162 313.673 157.613 314.858 157.318 316.117C157.022 317.375 156.985 318.681 157.21 319.954C157.53 321.894 158.54 326.434 161.39 325.514C162.152 325.225 162.799 324.695 163.23 324.004C163.643 323.317 164.014 322.605 164.34 321.874C164.699 321.185 165.097 320.518 165.53 319.874C167.364 317.345 169.526 315.072 171.96 313.114C173.08 312.114 174.2 311.264 175.32 310.314C176.32 309.494 177.83 308.224 179.16 308.164C183.641 308.048 188.124 308.181 192.59 308.564C199.51 309.104 206.9 309.994 211.4 310.564C220.4 311.714 223.4 311.654 226.99 305.374C230.79 298.784 235.27 287.284 238.4 276.834C242.425 264.119 243.606 250.675 241.86 237.454V237.454Z" fill="#F28F8F"/>
<path d="M243.13 248.444C243.56 253.344 241.96 268.344 238.13 281.354L212.63 280.504L213.44 249.984L243.13 248.444Z" fill="#37474F"/>
<path d="M179.79 297.194C179.79 296.304 178.54 295.904 177.59 296.194C177.095 296.353 176.611 296.544 176.14 296.764C177.267 297.334 178.561 297.487 179.79 297.194V297.194Z" fill="#407BFF"/>
<g opacity="0.3">
<path d="M179.79 297.194C179.79 296.304 178.54 295.904 177.59 296.194C177.095 296.353 176.611 296.544 176.14 296.764C177.267 297.334 178.561 297.487 179.79 297.194V297.194Z" fill="black"/>
</g>
<path d="M168.4 317.614C170.06 315.614 175.67 310.314 177.45 309.264C179.23 308.214 180.85 308.814 180.1 306.934C179.35 305.054 178.62 302.334 177.43 302.234C176.24 302.134 173.75 303.574 170.88 306.304C168.757 308.547 166.941 311.062 165.48 313.784L168.4 317.614Z" fill="#407BFF"/>
<path opacity="0.1" d="M168.4 317.614C170.06 315.614 175.67 310.314 177.45 309.264C179.23 308.214 180.85 308.814 180.1 306.934C179.35 305.054 178.62 302.334 177.43 302.234C176.24 302.134 173.75 303.574 170.88 306.304C168.757 308.547 166.941 311.062 165.48 313.784L168.4 317.614Z" fill="black"/>
<path d="M160.1 328.464C159.3 328.744 157.71 328.784 155.88 326.264C154.834 324.666 154.173 322.847 153.949 320.95C153.725 319.054 153.945 317.131 154.59 315.334C156.19 310.654 159.59 309.064 161.01 306.614C162.85 303.484 162.8 299.904 163.26 297.544C163.81 294.794 165.34 294.764 166.07 294.794C166.8 294.824 168.74 295.024 168.74 295.024L160.1 328.464Z" fill="#EBEBEB"/>
<path d="M179.79 297.194C179.31 295.874 177.79 296.104 176.79 296.524C175.79 296.944 174.39 297.524 174.23 298.574C174.07 299.624 176.12 300.224 176.34 301.354C176.56 302.484 174.82 303.944 172.71 305.934C170.6 307.924 166.05 313.264 166.18 313.934C166.31 314.604 168.34 316.584 168.38 317.604C167.05 319.271 165.996 321.142 165.26 323.144C164.68 324.984 164.2 326.474 163.89 327.244C163.58 328.014 161 328.614 159.95 328.434C158.22 328.134 154.61 325.244 154.83 319.284C155.05 313.324 158.16 312.014 160.9 309.444C163.64 306.874 164.39 301.034 164.75 299.444C165.183 297.745 166.217 296.26 167.66 295.264C168.909 294.68 170.283 294.412 171.66 294.484C174.09 294.554 175.51 295.004 177.42 294.704C179.57 294.364 180.5 297.074 180.5 297.074C180.5 297.074 180.34 297.124 179.79 297.194Z" fill="#407BFF"/>
<path d="M161.18 327.074C160.71 326.074 160.18 325.014 159.8 325.074C159.42 325.134 157.13 325.494 156.28 325.074C155.43 324.654 155.1 323.674 154.7 322.744C154.117 320.43 154.087 318.011 154.61 315.684C155.61 312.364 157.11 311.334 159.37 308.764C161.412 306.689 162.673 303.972 162.94 301.074C163.54 297.294 163.77 295.994 165.08 294.884C164.747 294.865 164.413 294.865 164.08 294.884C163.559 295.35 163.167 295.942 162.94 296.604C162.62 297.604 161.94 303.344 161.17 304.874C160.362 306.482 159.267 307.929 157.94 309.144C156.59 310.624 154.84 312.004 153.88 315.704C153.063 319.178 153.656 322.835 155.53 325.874C157.21 328.294 158.25 328.534 158.66 328.714C159.517 328.842 160.392 328.745 161.2 328.434C161.64 328.184 161.52 327.804 161.18 327.074Z" fill="#455A64"/>
<path d="M166.2 312.704C168.09 314.514 168.97 316.194 168.91 317.034C168.786 317.418 168.531 317.747 168.19 317.964C168.19 317.964 167.95 316.374 165.48 313.784C165.452 313.547 165.509 313.309 165.641 313.111C165.773 312.913 165.971 312.769 166.2 312.704Z" fill="#455A64"/>
<path d="M170.85 315.014C170.487 313.187 169.448 311.566 167.94 310.474C167.949 310.253 168.023 310.04 168.153 309.862C168.283 309.684 168.463 309.549 168.67 309.474C170.235 310.629 171.306 312.333 171.67 314.244C171.67 314.244 171.43 314.964 170.85 315.014Z" fill="#455A64"/>
<path d="M173.6 312.414C173.84 311.054 171.88 308.294 170.65 307.414C170.632 307.29 170.639 307.163 170.672 307.042C170.704 306.921 170.761 306.808 170.839 306.71C170.916 306.611 171.013 306.53 171.124 306.47C171.234 306.411 171.355 306.375 171.48 306.364C173.136 307.617 174.266 309.442 174.65 311.484C174.65 311.484 174.41 312.444 173.6 312.414Z" fill="#455A64"/>
<path d="M176.24 310.144C176.14 309.107 175.833 308.101 175.336 307.185C174.84 306.269 174.164 305.463 173.35 304.814C173.399 304.593 173.513 304.393 173.677 304.238C173.841 304.083 174.047 303.98 174.27 303.944C175.168 304.545 175.909 305.353 176.431 306.299C176.953 307.246 177.24 308.303 177.27 309.384C177.03 309.753 176.664 310.023 176.24 310.144V310.144Z" fill="#455A64"/>
<path d="M240.34 279.794C241.34 282.184 240.77 286.624 234.99 291.744C229.21 296.864 217.87 298.744 215.55 294.474C213.23 290.204 218.84 283.234 225.13 280.054C231.42 276.874 238.34 276.074 240.34 279.794Z" fill="#37474F"/>
<path d="M269.95 384.074C269.794 383.883 269.612 383.715 269.41 383.574C269.22 383.424 269.08 383.354 268.91 383.234C262.76 378.634 260.4 375.474 256.51 368.944C255.77 366.724 254.51 363.534 254.21 360.874C253.78 356.524 253.05 350.234 252.51 345.064C251.43 334.714 250.69 324.114 250.04 315.644C249.04 303.084 248.31 301.174 244.43 291.984C240.12 281.784 234.54 270.264 230.23 260.434C234.59 260.144 237.63 256.664 242.79 248.384C242.98 244.384 242.16 242.294 241.7 237.754C237.089 238.73 232.407 239.342 227.7 239.584C218.85 240.154 212.25 239.824 205.54 236.304C203.71 240.514 199.32 246.304 199.74 257.064C200.17 268.064 208.22 279.574 214.24 288.914C218.72 295.854 222.36 302.354 228.03 310.624C227.73 317.294 228.03 321.624 230.08 327.874C231.08 330.874 234.8 338.604 238.08 347.524C240.32 353.644 242.23 358.884 242.54 360.144C243.18 362.754 243.68 365.144 242.69 368.034C242.25 369.294 241.36 371.084 242.32 372.784C243.67 375.174 246.09 375.644 248 377.674C249.692 379.368 251.207 381.231 252.52 383.234C253.295 384.468 254.325 385.523 255.541 386.326C256.757 387.13 258.131 387.665 259.57 387.894C261.279 388.293 263.052 388.338 264.779 388.025C266.506 387.712 268.15 387.048 269.61 386.074C269.901 385.877 270.121 385.594 270.24 385.264C270.279 385.056 270.274 384.842 270.224 384.637C270.174 384.432 270.08 384.24 269.95 384.074V384.074Z" fill="#FFA8A7"/>
<path d="M200.09 235.894C199.29 242.529 198.932 249.211 199.02 255.894C199.02 264.894 203.37 272.894 207.72 280.464C212.07 288.034 215.55 294.464 215.55 294.464C215.55 294.464 215.18 288.024 222.85 282.344C231.1 276.244 238.85 277.474 240.34 279.784L231.57 259.784C231.57 259.784 240.08 255.464 243.13 248.394C243.13 248.394 242.79 242.764 241.9 237.174C241.9 237.224 218.89 244.864 200.09 235.894Z" fill="#455A64"/>
<path d="M231.12 259.734C233.54 265.294 236.92 271.734 238.68 276.014L234.99 261.074C238.56 257.294 240.2 255.744 241.99 250.684C239.74 254.184 236.55 256.154 231.12 259.734Z" fill="#263238"/>
<path d="M243.08 361.934C242.22 362.214 242.2 363.214 242.77 364.054C243.058 364.491 243.375 364.909 243.72 365.304L243.08 361.934Z" fill="#407BFF"/>
<path opacity="0.3" d="M243.08 361.934C242.22 362.214 242.2 363.214 242.77 364.054C243.058 364.491 243.375 364.909 243.72 365.304L243.08 361.934Z" fill="black"/>
<path d="M263.34 377.774C261.66 375.774 257.51 369.164 256.82 367.184C256.13 365.204 257.03 363.744 255.02 364.104C253.01 364.464 250.18 364.694 249.85 365.854C249.52 367.014 250.46 369.754 252.61 373.124C254.418 375.663 256.557 377.95 258.97 379.924L263.34 377.774Z" fill="#407BFF"/>
<path opacity="0.1" d="M263.34 377.774C261.66 375.774 257.51 369.164 256.82 367.184C256.13 365.204 257.03 363.744 255.02 364.104C253.01 364.464 250.18 364.694 249.85 365.854C249.52 367.014 250.46 369.754 252.61 373.124C254.418 375.663 256.557 377.95 258.97 379.924L263.34 377.774Z" fill="black"/>
<path d="M272.5 388.074C272.62 388.914 272.5 389.494 269.57 390.564C266.64 391.634 262.14 391.614 258.38 390.684C254.62 389.754 251.38 386.324 249.8 383.914C248.22 381.504 245.03 379.244 242.91 378.064C240.79 376.884 240.36 376.414 240.53 375.694C240.7 374.974 241.34 373.074 241.34 373.074L272.5 388.074Z" fill="#EBEBEB"/>
<path d="M243.08 361.934C242.4 362.404 242.71 363.714 243.85 364.814C244.31 365.504 244.59 367.914 245.62 368.284C246.65 368.654 247.62 366.744 248.79 366.744C249.96 366.744 251.06 368.744 252.63 371.214C254.2 373.684 258.63 379.214 259.29 379.214C259.95 379.214 262.34 377.584 263.36 377.744C264.91 379.224 266.539 380.619 268.24 381.924C270.64 383.694 271.48 384.234 272.18 384.704C272.88 385.174 273.03 386.864 272.64 387.864C272.25 388.864 266.7 391.304 260.83 389.934C254.96 388.564 253.28 385.984 251.26 382.774C249.761 380.367 247.658 378.395 245.16 377.054C243.621 376.349 242.232 375.354 241.07 374.124C240.737 372.781 240.737 371.377 241.07 370.034C241.61 367.634 242.3 365.634 241.99 363.704C241.857 363.225 241.871 362.718 242.029 362.247C242.188 361.776 242.484 361.364 242.88 361.064C242.97 361.348 243.037 361.639 243.08 361.934V361.934Z" fill="#407BFF"/>
<path d="M271.73 385.784C270.66 386.054 269.5 386.344 269.45 386.784C269.4 387.224 269.35 389.514 268.77 390.274C268.495 390.617 268.144 390.891 267.745 391.075C267.346 391.259 266.909 391.348 266.47 391.334C263.802 391.481 261.128 391.239 258.53 390.614C255.731 389.765 253.253 388.092 251.42 385.814C249.2 383.164 248.8 381.884 245.87 379.814C242.94 377.744 241.87 377.454 240.53 376.234C240.418 376.558 240.338 376.893 240.29 377.234C240.632 377.718 241.089 378.109 241.62 378.374C243.545 379.32 245.38 380.442 247.1 381.724C248.557 383.184 249.895 384.759 251.1 386.434C253.035 388.751 255.625 390.431 258.53 391.254C261.85 392.104 266.44 392.254 269.44 391.184C272.44 390.114 272.61 389.484 272.87 389.124C273.157 388.13 273.229 387.087 273.08 386.064C272.89 385.544 272.49 385.584 271.73 385.784Z" fill="#455A64"/>
<path d="M258.06 379.004C260.22 377.484 262.06 376.944 262.88 377.164C263.237 377.359 263.513 377.674 263.66 378.054C263.66 378.054 262.04 377.984 258.99 379.924C258.75 379.907 258.524 379.806 258.354 379.637C258.183 379.468 258.079 379.243 258.06 379.004Z" fill="#455A64"/>
<path d="M261.26 374.844C259.379 374.85 257.569 375.564 256.19 376.844C255.969 376.797 255.766 376.684 255.611 376.52C255.455 376.355 255.354 376.147 255.32 375.924C256.777 374.615 258.672 373.901 260.63 373.924C260.63 373.924 261.34 374.264 261.26 374.844Z" fill="#455A64"/>
<path d="M259.21 371.624C257.91 371.124 254.79 372.524 253.67 373.574C253.547 373.566 253.427 373.534 253.316 373.479C253.205 373.425 253.107 373.349 253.026 373.256C252.945 373.163 252.883 373.054 252.844 372.937C252.806 372.82 252.79 372.697 252.8 372.574C254.362 371.173 256.392 370.41 258.49 370.434C258.49 370.434 259.39 370.824 259.21 371.624Z" fill="#455A64"/>
<path d="M257.47 368.564C256.423 368.459 255.366 368.567 254.363 368.881C253.359 369.196 252.429 369.71 251.63 370.394C251.423 370.301 251.247 370.149 251.126 369.957C251.005 369.764 250.944 369.541 250.95 369.314C251.723 368.537 252.672 367.958 253.717 367.626C254.761 367.294 255.87 367.217 256.95 367.404C257.258 367.715 257.443 368.127 257.47 368.564V368.564Z" fill="#455A64"/>
<path d="M274.83 177.334C273.56 178.674 270.83 181.334 262.48 188.584C256.36 193.904 249.39 200.944 247.18 207.474C247.56 198.304 238.45 183.934 238.45 183.934C241.08 183.234 243.72 182.594 245.8 181.114C254.64 174.844 259.43 170.244 261.85 167.444C262.6 166.554 262.98 165.884 263.26 163.624C263.51 161.624 265.68 143.974 264.96 136.624C264.817 135.317 264.202 134.108 263.23 133.224C260.64 130.844 259.82 128.734 258.05 126.004C256.66 123.864 255.27 123.134 255.61 122.604C256.064 122.033 256.717 121.654 257.438 121.543C258.159 121.431 258.895 121.596 259.5 122.004C260.856 122.855 262.107 123.862 263.23 125.004C262.718 122.16 261.749 119.417 260.36 116.884C257.2 111.064 257.6 107.884 265.92 109.434C271.13 110.374 275.99 114.764 277.73 126.964C278.23 130.474 278.07 135.714 278.05 140.214C277.99 150.454 277.95 158.774 277.54 167.054C277.34 170.664 277.23 174.804 274.83 177.334Z" fill="#FFA8A7"/>
<path d="M205.27 188.404C204.27 192.174 199.37 224.224 198.52 251.174C210.8 256.554 235.81 252.174 243.22 243.174L244.01 229.584C245.89 219.384 246.63 210.384 247.44 206.004C248.32 201.174 248.19 189.224 240.34 184.524C236.924 183.33 233.338 182.692 229.72 182.634C225.01 182.464 216.42 182.494 211.72 183.414C209.44 183.874 205.92 186.074 205.27 188.404Z" fill="#407BFF"/>
<path opacity="0.6" d="M205.27 188.404C204.27 192.174 199.37 224.224 198.52 251.174C210.8 256.554 235.81 252.174 243.22 243.174L244.01 229.584C245.89 219.384 246.63 210.384 247.44 206.004C248.32 201.174 248.19 189.224 240.34 184.524C236.924 183.33 233.338 182.692 229.72 182.634C225.01 182.464 216.42 182.494 211.72 183.414C209.44 183.874 205.92 186.074 205.27 188.404Z" fill="white"/>
<path d="M214.7 214.964C214.7 214.964 232.28 216.384 243.22 211.904L241.34 229.394C241.34 229.394 229.79 235.544 212.99 231.554L214.7 214.964Z" fill="#FAFAFA"/>
<path d="M223.34 222.694C223.34 222.854 223.34 223.034 223.34 223.224V223.824L223.28 224.424C223.272 224.605 223.252 224.785 223.22 224.964C223.164 225.426 223.049 225.88 222.88 226.314C222.724 226.69 222.492 227.03 222.2 227.314C221.885 227.616 221.501 227.836 221.08 227.954C220.556 228.096 220.009 228.134 219.47 228.064C218.927 228.017 218.397 227.868 217.91 227.624C217.514 227.419 217.171 227.125 216.91 226.764C216.669 226.411 216.502 226.013 216.42 225.594C216.332 225.132 216.295 224.663 216.31 224.194C216.31 223.864 216.31 223.494 216.38 223.084C216.45 222.674 216.46 222.304 216.5 221.984C216.566 221.522 216.683 221.069 216.85 220.634C216.999 220.254 217.231 219.912 217.53 219.634C217.841 219.341 218.219 219.128 218.63 219.014C219.156 218.879 219.703 218.848 220.24 218.924C220.784 218.963 221.316 219.102 221.81 219.334C222.195 219.516 222.53 219.789 222.788 220.128C223.045 220.468 223.217 220.864 223.29 221.284C223.366 221.75 223.382 222.223 223.34 222.694V222.694ZM217.98 224.404C217.947 224.914 218.058 225.423 218.3 225.874C218.439 226.071 218.623 226.233 218.837 226.346C219.051 226.459 219.288 226.52 219.53 226.524C219.764 226.572 220.007 226.562 220.237 226.496C220.467 226.43 220.677 226.309 220.85 226.144C221.169 225.748 221.367 225.269 221.42 224.764C221.42 224.444 221.5 224.084 221.53 223.694C221.56 223.304 221.59 222.944 221.6 222.624C221.637 222.116 221.526 221.609 221.28 221.164C221.139 220.969 220.954 220.811 220.74 220.702C220.527 220.592 220.29 220.535 220.05 220.534C219.817 220.485 219.576 220.493 219.347 220.556C219.118 220.618 218.906 220.734 218.73 220.894C218.41 221.284 218.215 221.761 218.17 222.264C218.12 222.584 218.08 222.944 218.05 223.334C218.02 223.724 218 224.074 217.99 224.404H217.98Z" fill="black"/>
<path d="M229.54 222.404C229.788 222.231 229.99 222.001 230.13 221.734C230.229 221.55 230.294 221.35 230.32 221.144C230.349 220.994 230.346 220.84 230.312 220.692C230.277 220.544 230.212 220.405 230.12 220.284C229.984 220.167 229.824 220.082 229.651 220.035C229.478 219.988 229.296 219.981 229.12 220.014C228.714 220.017 228.321 220.162 228.01 220.424C227.752 220.682 227.55 220.992 227.42 221.334C227.379 221.437 227.31 221.528 227.22 221.594C227.152 221.649 227.068 221.681 226.98 221.684H225.98C225.935 221.689 225.89 221.684 225.846 221.67C225.803 221.657 225.764 221.634 225.73 221.604C225.7 221.572 225.679 221.534 225.668 221.492C225.658 221.449 225.658 221.405 225.67 221.364C225.754 220.973 225.906 220.601 226.12 220.264C226.344 219.916 226.621 219.606 226.94 219.344C227.276 219.07 227.65 218.848 228.05 218.684C228.462 218.506 228.902 218.401 229.35 218.374C229.821 218.322 230.298 218.369 230.75 218.514C231.092 218.632 231.401 218.831 231.65 219.094C231.872 219.338 232.03 219.633 232.11 219.954C232.197 220.279 232.218 220.62 232.17 220.954C232.142 221.159 232.101 221.363 232.05 221.564C231.987 221.772 231.897 221.97 231.78 222.154C231.637 222.384 231.469 222.599 231.28 222.794C231.023 223.061 230.745 223.309 230.45 223.534C229.36 224.484 228.82 224.954 227.73 225.874C229.19 225.774 229.92 225.714 231.38 225.564C231.423 225.557 231.468 225.561 231.51 225.575C231.551 225.589 231.589 225.612 231.62 225.644C231.649 225.673 231.671 225.71 231.683 225.75C231.695 225.79 231.698 225.832 231.69 225.874C231.69 226.234 231.62 226.414 231.57 226.774C231.552 226.87 231.503 226.958 231.43 227.024C231.358 227.098 231.263 227.144 231.16 227.154C228.7 227.404 227.48 227.494 225.04 227.604C224.996 227.606 224.952 227.599 224.911 227.584C224.869 227.568 224.832 227.544 224.8 227.514C224.772 227.481 224.751 227.443 224.739 227.401C224.727 227.36 224.724 227.316 224.73 227.274L224.84 226.494C224.86 226.352 224.923 226.219 225.02 226.114C225.097 226.031 225.181 225.954 225.27 225.884C226.93 224.544 227.8 223.834 229.54 222.404Z" fill="black"/>
<path d="M240.93 217.074C240.969 217.06 241.011 217.058 241.052 217.067C241.092 217.076 241.13 217.095 241.16 217.124C241.191 217.15 241.215 217.185 241.229 217.223C241.243 217.262 241.247 217.303 241.24 217.344C241.24 217.704 241.16 217.884 241.11 218.244C241.099 218.349 241.053 218.447 240.98 218.524L240.76 218.774C239.88 219.704 239.43 220.164 238.55 221.074C238.902 221.06 239.255 221.09 239.6 221.164C239.875 221.233 240.132 221.363 240.35 221.544C240.55 221.725 240.699 221.956 240.78 222.214C240.87 222.539 240.887 222.881 240.83 223.214C240.77 223.65 240.62 224.068 240.39 224.444C240.153 224.819 239.859 225.157 239.52 225.444C239.157 225.705 238.76 225.917 238.34 226.074C237.876 226.275 237.389 226.419 236.89 226.504C236.37 226.582 235.84 226.582 235.32 226.504C234.942 226.448 234.578 226.319 234.25 226.124C233.995 225.959 233.791 225.727 233.66 225.454C233.543 225.207 233.488 224.936 233.5 224.664C233.502 224.613 233.514 224.564 233.537 224.519C233.559 224.475 233.591 224.435 233.63 224.404C233.707 224.337 233.8 224.292 233.9 224.274L234.95 224.144C234.985 224.136 235.021 224.136 235.056 224.145C235.091 224.154 235.123 224.17 235.15 224.194C235.212 224.254 235.263 224.325 235.3 224.404C235.34 224.5 235.397 224.588 235.47 224.664C235.564 224.746 235.672 224.811 235.79 224.854C235.958 224.91 236.133 224.94 236.31 224.944C236.578 224.95 236.846 224.93 237.11 224.884C237.595 224.814 238.057 224.633 238.46 224.354C238.627 224.239 238.768 224.09 238.874 223.918C238.981 223.746 239.051 223.554 239.08 223.354C239.122 223.204 239.104 223.044 239.032 222.906C238.959 222.769 238.837 222.664 238.69 222.614C238.272 222.519 237.838 222.519 237.42 222.614L236.32 222.784C236.28 222.793 236.238 222.792 236.198 222.781C236.158 222.771 236.121 222.751 236.09 222.724C236.058 222.695 236.034 222.659 236.02 222.619C236.006 222.579 236.003 222.536 236.01 222.494C236.06 222.134 236.09 221.954 236.14 221.594C236.151 221.488 236.197 221.39 236.27 221.314L236.49 221.074C237.34 220.224 237.76 219.784 238.6 218.914C237.14 219.164 236.41 219.264 234.95 219.454C234.907 219.463 234.863 219.462 234.821 219.449C234.779 219.437 234.741 219.414 234.71 219.384C234.681 219.356 234.659 219.321 234.647 219.283C234.635 219.244 234.632 219.203 234.64 219.164C234.69 218.794 234.72 218.614 234.77 218.254C234.782 218.158 234.828 218.069 234.9 218.004C234.973 217.93 235.068 217.881 235.17 217.864C237.44 217.634 238.6 217.454 240.93 217.074Z" fill="black"/>
<path d="M220.04 145.244C218.917 145.392 217.848 145.813 216.926 146.47C216.004 147.128 215.257 148.001 214.75 149.014C213.64 151.224 214.38 155.694 215.64 161.584C216.337 165.391 217.44 169.112 218.93 172.684C219.462 173.7 220.364 174.474 221.45 174.844L221.51 167.904L221.41 163.054C221.41 163.054 225.73 164.514 227.02 157.484C227.533 154.393 227.803 151.267 227.83 148.134L220.04 145.244Z" fill="#263238"/>
<path d="M225.14 152.974C225.058 155.547 225.741 158.087 227.104 160.271C228.467 162.455 230.448 164.185 232.795 165.243C235.142 166.3 237.751 166.636 240.29 166.209C242.829 165.782 245.184 164.611 247.056 162.844C248.928 161.077 250.234 158.794 250.807 156.284C251.38 153.774 251.195 151.15 250.276 148.745C249.356 146.341 247.743 144.263 245.641 142.776C243.54 141.29 241.044 140.46 238.47 140.394C235.037 140.305 231.708 141.578 229.211 143.935C226.713 146.292 225.25 149.541 225.14 152.974V152.974Z" fill="#263238"/>
<path d="M223.1 162.734C222.89 162.815 222.66 162.833 222.44 162.784C222.153 162.689 221.892 162.529 221.679 162.315C221.465 162.101 221.304 161.841 221.21 161.554C221.035 160.976 220.828 160.408 220.59 159.854C220.07 158.854 218.51 158.474 217.44 158.474C216.748 158.498 216.071 158.683 215.462 159.012C214.853 159.342 214.329 159.808 213.93 160.374C211.64 163.374 214.02 168.464 216.38 169.644C219.82 171.384 221.51 167.904 221.51 167.904L221.34 183.594C221.34 183.594 222.17 186.594 228.09 188.864C232.72 190.654 239.75 188.134 235.55 183.544V178.344C237.914 178.891 240.361 178.986 242.76 178.624C245.11 178.144 246.28 176.564 247.35 172.914C249.62 164.891 249.617 156.395 247.34 148.374C244.86 146.324 240.83 146.804 237.94 147.374C235.779 147.829 233.668 148.499 231.64 149.374C231.28 149.524 230.24 149.794 230.03 150.124C229.82 150.454 230.03 150.924 230.03 151.264C230.004 152.217 229.671 153.136 229.08 153.884C228.008 154.919 226.571 155.49 225.08 155.474C225.07 157.288 224.808 159.092 224.3 160.834C224.17 161.574 223.74 162.524 223.1 162.734Z" fill="#FFA8A7"/>
<path d="M250.34 139.884C250.304 139.788 250.244 139.703 250.165 139.638C250.086 139.573 249.991 139.53 249.89 139.514C249.726 139.52 249.568 139.58 249.44 139.684C248.53 140.372 247.563 140.98 246.55 141.504C246.851 140.239 246.909 138.929 246.72 137.644C246.6 136.854 246.44 135.024 245.47 134.804C244.9 134.664 244.38 135.134 243.94 135.524C239.94 139.044 234.94 137.194 230.21 137.194C226.28 137.194 221.5 138.644 219.6 142.394C218.74 144.114 218.54 145.954 220.1 147.204C221.44 148.284 225.91 149.374 227.51 149.904C231.76 151.304 242.7 154.904 248.71 147.794C249.721 146.404 250.405 144.804 250.71 143.114C250.891 142.04 250.763 140.937 250.34 139.934V139.884Z" fill="#263238"/>
<path d="M235.62 178.344C235.62 178.344 229.76 177.104 227.44 175.494C225.921 174.458 224.681 173.063 223.83 171.434C223.83 171.434 224.33 174.774 225.93 176.574C228.75 179.734 235.6 180.694 235.6 180.694L235.62 178.344Z" fill="#F28F8F"/>
<path d="M235.19 160.964C235.17 161.243 235.069 161.511 234.898 161.734C234.727 161.956 234.494 162.124 234.229 162.215C233.964 162.306 233.678 162.318 233.406 162.247C233.135 162.177 232.89 162.029 232.702 161.821C232.514 161.612 232.391 161.353 232.35 161.076C232.308 160.799 232.348 160.515 232.467 160.261C232.585 160.006 232.775 159.792 233.014 159.645C233.253 159.498 233.53 159.424 233.81 159.434C234.195 159.457 234.555 159.63 234.813 159.916C235.071 160.203 235.206 160.579 235.19 160.964V160.964Z" fill="#263238"/>
<path d="M233.27 156.014L230.27 157.784C230.04 157.371 229.979 156.887 230.098 156.43C230.217 155.974 230.508 155.581 230.91 155.334C231.108 155.218 231.328 155.144 231.556 155.116C231.784 155.088 232.015 155.106 232.235 155.17C232.456 155.233 232.661 155.341 232.839 155.486C233.017 155.631 233.163 155.81 233.27 156.014V156.014Z" fill="#263238"/>
<path d="M234.79 169.374L240.79 171.214C240.521 172.024 239.95 172.699 239.195 173.097C238.44 173.496 237.561 173.588 236.74 173.354C236.346 173.227 235.982 173.022 235.67 172.751C235.357 172.48 235.102 172.149 234.92 171.778C234.738 171.406 234.633 171.002 234.61 170.589C234.588 170.176 234.649 169.763 234.79 169.374V169.374Z" fill="#B16668"/>
<path d="M238.79 173.274C238.605 172.484 238.145 171.785 237.494 171.301C236.842 170.818 236.04 170.581 235.23 170.634C235.032 170.656 234.835 170.69 234.64 170.734C234.691 171.334 234.922 171.904 235.301 172.372C235.681 172.839 236.193 173.181 236.77 173.354C237.433 173.553 238.145 173.525 238.79 173.274V173.274Z" fill="#F28F8F"/>
<path d="M247.27 156.744L244.16 155.134C244.254 154.925 244.389 154.737 244.558 154.583C244.727 154.428 244.926 154.31 245.142 154.235C245.359 154.16 245.588 154.13 245.816 154.147C246.045 154.164 246.267 154.228 246.47 154.334C246.887 154.556 247.203 154.93 247.352 155.378C247.501 155.827 247.472 156.316 247.27 156.744V156.744Z" fill="#263238"/>
<path d="M246.14 160.214C246.12 160.493 246.019 160.76 245.849 160.983C245.678 161.205 245.446 161.373 245.182 161.464C244.917 161.556 244.631 161.568 244.36 161.499C244.089 161.429 243.843 161.282 243.655 161.075C243.467 160.867 243.343 160.609 243.3 160.333C243.257 160.056 243.297 159.772 243.413 159.518C243.53 159.263 243.719 159.048 243.956 158.9C244.194 158.752 244.47 158.676 244.75 158.684C245.136 158.704 245.499 158.877 245.759 159.163C246.02 159.449 246.156 159.827 246.14 160.214Z" fill="#263238"/>
<path d="M239.59 167.794L244.1 166.634L238.97 159.464L239.59 167.794Z" fill="#F28F8F"/>
<path d="M221.98 250.124L216.87 250.694L220.49 246.804C201.38 254.044 172.4 248.544 138.74 254.734C118.22 258.504 93.24 272.924 85.91 281.034V292.644C93.34 283.644 122.14 265.724 139.38 262.274C175.01 255.124 203.38 261.564 219.49 255.934L222.29 254.734L217.37 254.154L221.98 250.124Z" fill="#407BFF"/>
<path opacity="0.2" d="M221.98 250.124L216.87 250.694L220.49 246.804C201.38 254.044 172.4 248.544 138.74 254.734C118.22 258.504 93.24 272.924 85.91 281.034V292.644C93.34 283.644 122.14 265.724 139.38 262.274C175.01 255.124 203.38 261.564 219.49 255.934L222.29 254.734L217.37 254.154L221.98 250.124Z" fill="black"/>
<path d="M190.05 260.434C188.56 257.644 187.61 256.794 186.82 254.144C187.65 254.885 188.579 255.508 189.58 255.994C190.79 256.484 192.36 256.344 192.67 255.254C192.98 254.164 191.14 253.684 190.37 252.524C189.159 250.543 187.759 248.684 186.19 246.974C185.763 246.64 185.408 246.224 185.147 245.75C184.886 245.275 184.723 244.753 184.67 244.214C184.11 236.454 184.42 227.104 184.12 218.324C189.69 214.814 201.25 208.644 205.9 205.784C209.52 203.554 212.45 197.724 213.24 191.884C213.44 190.404 213.64 185.284 212.78 183.254C209.78 182.804 205.73 183.844 202.4 186.134C200.4 187.514 196.55 190.484 187.78 197.064C182.78 200.784 175.83 205.644 170.58 211.924C168.24 214.734 172.17 238.174 173 243.454C173.45 246.314 174.26 250.714 175.22 254.454C176.84 260.764 180.92 265.784 185.63 266.524C193.15 267.724 192.06 264.204 190.05 260.434Z" fill="#FFA8A7"/>
<path d="M274.15 210.304C265.15 226.744 253.59 239.474 230.43 243.874L236.08 244.954L231.34 248.074L236.16 248.724L232.86 251.974C258.24 246.404 270.4 232.324 279.7 216.054C286.29 204.534 290.56 186.364 297.99 172.894C303.86 162.264 308.99 156.584 313.81 153.254V143.804C306.22 148.184 298.92 156.364 293.15 166.934C284.7 182.494 278.79 201.814 274.15 210.304Z" fill="#407BFF"/>
<path opacity="0.2" d="M274.15 210.304C265.15 226.744 253.59 239.474 230.43 243.874L236.08 244.954L231.34 248.074L236.16 248.724L232.86 251.974C258.24 246.404 270.4 232.324 279.7 216.054C286.29 204.534 290.56 186.364 297.99 172.894C303.86 162.264 308.99 156.584 313.81 153.254V143.804C306.22 148.184 298.92 156.364 293.15 166.934C284.7 182.494 278.79 201.814 274.15 210.304Z" fill="black"/>
<path d="M365.85 106.464C365.85 106.464 361.7 103.964 361.5 99.4636L364.57 96.9936C364.57 96.9936 364.15 99.7536 367.72 103.704L365.85 106.464Z" fill="#407BFF"/>
<path d="M403.49 71.2636C403.49 71.2636 399.58 68.4036 399.77 63.9236L403.04 61.7336C403.04 61.7336 402.38 64.4436 405.59 68.7336L403.49 71.2636Z" fill="#407BFF"/>
<path d="M427.34 226.584C427.34 226.584 423.43 223.724 423.63 219.234L426.9 217.054C426.9 217.054 426.24 219.764 429.45 224.054L427.34 226.584Z" fill="#407BFF"/>
<path d="M402.43 18.4936C402.43 18.4936 400.85 13.9136 403.57 10.3436L407.5 10.4136C407.5 10.4136 405.41 12.2636 405.62 17.5836L402.43 18.4936Z" fill="#407BFF"/>
<path d="M433.75 104.734C433.75 104.734 435.92 109.064 433.7 112.964L429.79 113.424C429.79 113.424 431.62 111.314 430.7 106.064L433.75 104.734Z" fill="#407BFF"/>
<path d="M64.1 89.1936C64.1 89.1936 66.85 84.6936 64.78 80.2636L60.57 79.4236C60.57 79.4236 62.37 81.8736 60.91 87.4936L64.1 89.1936Z" fill="#407BFF"/>
<path d="M183.71 7.07359C183.71 7.07359 183.65 11.9236 187.35 14.4536L191.07 13.1436C191.07 13.1436 188.5 12.0436 187.07 6.93359L183.71 7.07359Z" fill="#407BFF"/>
<path d="M6.78 145.074C6.78 145.074 11.02 142.724 11.38 138.254L8.38 135.674C8.38 135.674 8.7 138.444 4.98 142.254L6.78 145.074Z" fill="#407BFF"/>
<path d="M26.57 184.924C26.57 184.924 22.34 182.574 21.98 178.074L24.98 175.494C24.98 175.494 24.66 178.264 28.38 182.074L26.57 184.924Z" fill="#407BFF"/>
<path d="M33.22 175.144C33.22 175.144 31.4 170.654 33.93 166.944L37.86 166.814C37.86 166.814 35.86 168.764 36.36 174.064L33.22 175.144Z" fill="#407BFF"/>
<path d="M344.12 6.23359C344.12 6.23359 343.85 11.0636 347.44 13.7536L351.21 12.6136C351.21 12.6136 348.69 11.4036 347.44 6.23359H344.12Z" fill="#407BFF"/>
<path d="M442.02 40.1736C442.02 40.1736 444.21 44.4836 442.02 48.3936L438.12 48.8736C438.12 48.8736 439.93 46.7536 438.98 41.5136L442.02 40.1736Z" fill="#407BFF"/>
<path d="M378.02 51.0736C378.02 51.0736 374.47 47.7836 375.18 43.3536L378.68 41.5636C378.68 41.5636 377.68 44.1736 380.41 48.7636L378.02 51.0736Z" fill="#407BFF"/>
<path d="M397.76 128.444C397.76 128.444 399.87 132.804 397.6 136.674L393.68 137.074C393.68 137.074 395.54 134.984 394.68 129.724L397.76 128.444Z" fill="#407BFF"/>
<path d="M424.42 170.864C424.42 170.864 423.01 166.224 425.87 162.764L429.79 162.974C429.79 162.974 427.07 164.884 427.08 170.214L424.42 170.864Z" fill="#407BFF"/>
<path d="M419.8 183.414C419.8 183.414 415.64 180.944 415.41 176.414L418.46 173.934C418.633 176.567 419.638 179.078 421.33 181.104L419.8 183.414Z" fill="#407BFF"/>
<path d="M167.47 30.8736C167.47 30.8736 169.57 35.2336 167.28 39.0936L163.36 39.4836C163.36 39.4836 165.23 37.4036 164.36 32.1436L167.47 30.8736Z" fill="#407BFF"/>
<path d="M14.43 94.4436C14.43 94.4436 18.14 91.3336 17.65 86.8736L14.24 84.8736C14.24 84.8736 15.08 87.5336 12.15 91.9836L14.43 94.4436Z" fill="#407BFF"/>
<path d="M17.84 227.074C17.84 227.074 18.9 233.074 24.06 235.294L28.34 232.794C28.34 232.794 24.92 232.044 21.91 226.094L17.84 227.074Z" fill="#407BFF"/>
<path d="M51 121.634C51 121.634 50.78 126.474 54.4 129.124L58.16 127.944C58.16 127.944 55.05 126.764 53.75 121.604L51 121.634Z" fill="#407BFF"/>
<g opacity="0.25">
<path d="M344.12 6.23359C344.12 6.23359 343.85 11.0636 347.44 13.7536L351.21 12.6136C351.21 12.6136 348.69 11.4036 347.44 6.23359H344.12Z" fill="black"/>
<path d="M442.02 40.1736C442.02 40.1736 444.21 44.4836 442.02 48.3936L438.12 48.8736C438.12 48.8736 439.93 46.7536 438.98 41.5136L442.02 40.1736Z" fill="black"/>
<path d="M378.02 51.0736C378.02 51.0736 374.47 47.7836 375.18 43.3536L378.68 41.5636C378.68 41.5636 377.68 44.1736 380.41 48.7636L378.02 51.0736Z" fill="black"/>
<path d="M397.76 128.444C397.76 128.444 399.87 132.804 397.6 136.674L393.68 137.074C393.68 137.074 395.54 134.984 394.68 129.724L397.76 128.444Z" fill="black"/>
<path d="M424.42 170.864C424.42 170.864 423.01 166.224 425.87 162.764L429.79 162.974C429.79 162.974 427.07 164.884 427.08 170.214L424.42 170.864Z" fill="black"/>
<path d="M419.8 183.414C419.8 183.414 415.64 180.944 415.41 176.414L418.46 173.934C418.633 176.567 419.638 179.078 421.33 181.104L419.8 183.414Z" fill="black"/>
<path d="M167.47 30.8736C167.47 30.8736 169.57 35.2336 167.28 39.0936L163.36 39.4836C163.36 39.4836 165.23 37.4036 164.36 32.1436L167.47 30.8736Z" fill="black"/>
<path d="M14.43 94.4436C14.43 94.4436 18.14 91.3336 17.65 86.8736L14.24 84.8736C14.24 84.8736 15.08 87.5336 12.15 91.9836L14.43 94.4436Z" fill="black"/>
<path d="M17.84 227.074C17.84 227.074 18.9 233.074 24.06 235.294L28.34 232.794C28.34 232.794 24.92 232.044 21.91 226.094L17.84 227.074Z" fill="black"/>
<path d="M51 121.634C51 121.634 50.78 126.474 54.4 129.124L58.16 127.944C58.16 127.944 55.05 126.764 53.75 121.604L51 121.634Z" fill="black"/>
</g>
</svg>
