<svg width="234" height="104" viewBox="0 0 234 104" fill="none" xmlns="http://www.w3.org/2000/svg">
<path d="M81.0815 1.08295V20.1313H0.126465V1.08295H81.0815ZM29.1306 31.5314C39.6656 23.1619 51.643 31.5314 51.643 31.5314V102.096H28.9877V31.5314H29.1306Z" fill="#151515"/>
<path d="M93.1792 102.241V1.22725H115.836V102.241H93.1792V102.241Z" fill="#151515"/>
<path d="M187.822 20.4196C187.822 20.4196 143.809 19.1211 136.883 72.082C134.286 65.876 132.842 59.0947 132.842 51.8789C132.842 22.729 156.364 0.65007 187.535 0.65007C207.593 0.65007 224.477 9.74175 234 23.8827L213.077 33.263C207.158 25.4709 197.78 20.5644 187.822 20.5644V20.4196H187.822Z" fill="#151515"/>
<path d="M187.822 83.9146C197.635 83.9146 207.016 79.0081 212.932 71.215L233.712 80.4505C224.187 94.5925 207.448 103.685 187.535 103.685C183.206 103.685 179.019 103.251 175.123 102.386C171.661 101.086 168.341 99.356 165.31 96.9018C156.941 89.9757 154.055 82.615 153.045 79.1529C149.581 68.0406 153.335 57.6504 155.642 52.0237C155.787 69.4849 171.371 83.6268 187.967 83.6268L187.822 83.9146Z" fill="#AEAEAE"/>
</svg>
